<?xml version="1.0" encoding="UTF-8" standalone="no"?>
<!DOCTYPE svg PUBLIC "-//W3C//DTD SVG 1.1//EN" "http://www.w3.org/Graphics/SVG/1.1/DTD/svg11.dtd">
<!-- Generated by Microsoft Visio, SVG Export image-coordinate-system.svg Page-1 -->
<svg xmlns="http://www.w3.org/2000/svg" xmlns:xlink="http://www.w3.org/1999/xlink" xmlns:ev="http://www.w3.org/2001/xml-events"
		width="3.51767in" height="2.7364in" viewBox="0 0 253.272 197.021" xml:space="preserve" color-interpolation-filters="sRGB"
		class="st11">
	<style type="text/css">
	<![CDATA[
		.st1 {fill:#ffffff;stroke:none;stroke-linecap:round;stroke-linejoin:round;stroke-width:0.75}
		.st2 {fill:#ffffff;stroke:#000000;stroke-linecap:round;stroke-linejoin:round;stroke-width:0.24}
		.st3 {marker-end:url(#mrkr13-10);stroke:#000000;stroke-linecap:round;stroke-linejoin:round;stroke-width:0.75}
		.st4 {fill:#000000;fill-opacity:1;stroke:#000000;stroke-opacity:1;stroke-width:0.22935779816514}
		.st5 {fill:#ffffff;stroke:none;stroke-linecap:butt;stroke-width:7.2}
		.st6 {fill:#000000;font-family:Calibri;font-size:0.75em}
		.st7 {fill:#ffffff;stroke:none;stroke-linecap:butt}
		.st8 {fill:none;stroke:none;stroke-linecap:round;stroke-linejoin:round;stroke-width:0.75}
		.st9 {fill:#000000;stroke:#000000;stroke-linecap:round;stroke-linejoin:round;stroke-width:0.24}
		.st10 {stroke:#000000;stroke-dasharray:3.75,2.25;stroke-linecap:round;stroke-linejoin:round;stroke-width:0.25}
		.st11 {fill:none;fill-rule:evenodd;font-size:12px;overflow:visible;stroke-linecap:square;stroke-miterlimit:3}
	]]>
	</style>

	<defs id="Markers">
		<g id="lend13">
			<path d="M 3 1 L 0 0 L 3 -1 L 3 1 " style="stroke:none"/>
		</g>
		<marker id="mrkr13-10" class="st4" refX="-13.08" orient="auto" markerUnits="strokeWidth" overflow="visible">
			<use xlink:href="#lend13" transform="scale(-4.36,-4.36) "/>
		</marker>
	</defs>
	<g>
		<title>VBackground-1</title>
		<g id="shape1-1">
			<title>Solid</title>
			<rect x="0" y="0" width="253.272" height="197.021" class="st1"/>
		</g>
	</g>
	<g>
		<title>Page-1</title>
		<g id="shape1-3" transform="translate(39.5397,-28.3406)">
			<title>Rectangle</title>
			<rect x="0" y="57.9766" width="185.392" height="139.044" class="st2"/>
		</g>
		<g id="shape2-5" transform="translate(39.764,-167.385)">
			<title>Sheet.2</title>
			<desc>+X</desc>
			<path d="M0 197.02 L175.36 197.02" class="st3"/>
			<rect x="90.3245" y="185.385" width="9.15381" height="10.7998" class="st5"/>
			<text x="90.32" y="193.48" class="st6">+X</text>		</g>
		<g id="shape3-13" transform="translate(236.784,29.9538) rotate(90.0924)">
			<title>Sheet.3</title>
			<desc>+Y</desc>
			<path d="M0 197.02 L129.23 197.02" class="st3"/>
			<rect x="-214.677" y="61.0512" width="8.86816" height="10.7998" transform="rotate(-90)" class="st7"/>
			<text x="-214.68" y="69.15" transform="rotate(-90)" class="st6">+Y</text>		</g>
		<g id="shape8-20" transform="translate(36.7514,-148.18)">
			<title>Sheet.8</title>
			<desc>(0,0)</desc>
			<rect x="0" y="174.803" width="28.3402" height="22.2173" class="st8"/>
			<text x="5.76" y="188.61" class="st6">(0,0)</text>		</g>
		<g id="shape10-23" transform="translate(36.7514,-164.372)">
			<title>Circle</title>
			<path d="M0 194.01 A3.01262 3.01262 0 0 1 6.03 194.01 A3.01262 3.01262 0 1 1 0 194.01 Z" class="st9"/>
		</g>
		<g id="shape13-25" transform="translate(129.223,-108.754)">
			<title>Circle.13</title>
			<path d="M0 194.01 A3.01262 3.01262 0 0 1 6.03 194.01 A3.01262 3.01262 0 1 1 0 194.01 Z" class="st9"/>
		</g>
		<g id="shape14-27" transform="translate(329.256,29.636) rotate(90)">
			<title>Sheet.14</title>
			<path d="M0 197.02 L55.62 197.02" class="st10"/>
		</g>
		<g id="shape15-30" transform="translate(132.236,282.274) rotate(180)">
			<title>Sheet.15</title>
			<path d="M0 197.02 L92.56 197.02" class="st10"/>
		</g>
		<g id="shape16-33" transform="translate(137.095,-95.4165)">
			<title>Sheet.16</title>
			<desc>(5,3)</desc>
			<rect x="0" y="164.32" width="41.7132" height="32.7011" class="st8"/>
			<text x="12.44" y="183.37" class="st6">(5,3)</text>		</g>
	</g>
</svg>
