<?xml version="1.0" encoding="UTF-8" standalone="no"?>
<svg
   width="32"
   height="32"
   viewBox="0 0 32 32"
   version="1.1"
   id="SVGRoot"
   sodipodi:docname="logo.svg"
   inkscape:version="1.3.2 (091e20e, 2023-11-25, custom)"
   xmlns:inkscape="http://www.inkscape.org/namespaces/inkscape"
   xmlns:sodipodi="http://sodipodi.sourceforge.net/DTD/sodipodi-0.dtd"
   xmlns="http://www.w3.org/2000/svg"
   xmlns:svg="http://www.w3.org/2000/svg"
   xmlns:rdf="http://www.w3.org/1999/02/22-rdf-syntax-ns#"
   xmlns:cc="http://creativecommons.org/ns#"
   xmlns:dc="http://purl.org/dc/elements/1.1/">
  <defs
     id="defs1499" />
  <sodipodi:namedview
     id="base"
     pagecolor="#b0b0af"
     bordercolor="#666666"
     borderopacity="1.0"
     inkscape:pageopacity="0"
     inkscape:pageshadow="2"
     inkscape:zoom="21.675273"
     inkscape:cx="16.009026"
     inkscape:cy="15.985958"
     inkscape:document-units="px"
     inkscape:current-layer="layer1"
     inkscape:document-rotation="0"
     showgrid="true"
     inkscape:window-width="1920"
     inkscape:window-height="991"
     inkscape:window-x="-9"
     inkscape:window-y="-9"
     inkscape:window-maximized="1"
     inkscape:showpageshadow="2"
     inkscape:pagecheckerboard="0"
     inkscape:deskcolor="#d1d1d1">
    <inkscape:grid
       type="xygrid"
       id="grid2069"
       originx="0"
       originy="0"
       spacingy="1"
       spacingx="1"
       units="px"
       visible="true" />
  </sodipodi:namedview>
  <metadata
     id="metadata1502">
    <rdf:RDF>
      <cc:Work
         rdf:about="">
        <dc:format>image/svg+xml</dc:format>
        <dc:type
           rdf:resource="http://purl.org/dc/dcmitype/StillImage" />
        <dc:title />
      </cc:Work>
    </rdf:RDF>
  </metadata>
  <g
     inkscape:label="Calque 1"
     inkscape:groupmode="layer"
     id="layer1">
    <rect
       style="fill:#9611b6;fill-opacity:1;stroke:none;stroke-width:0.201574;stroke-opacity:1"
       id="rect833"
       width="32"
       height="32"
       x="0"
       y="0"
       ry="5" />
    <path
       style="fill:#ffffff;fill-opacity:1;stroke:none;stroke-width:0.188976;stroke-linecap:butt;stroke-linejoin:miter;stroke-miterlimit:4;stroke-dasharray:none;stroke-opacity:1"
       d="m 16,31 3,-2 1,-2 -1,-2 h 1 l -1,-2 h 1 l -1,-2 -1,-1 1,-1 v -1 l 3,-2 1,-2 c 0,0.171536 0,-0.6664 0,-1 l -3,1 v -1 l 3,-1 v 0 h 2 l 2,-1 h -2 l 1,-1 2,-1 2,-1 v 0 h 1 L 30,7 31,5 29,7 27,8 28,6 c 0,0 0.04759,-1.0951825 0,-1 V 4 l 1,-2 -1,1 -2,-2 1,2 v 1 l -2,-2 2,3 v 1 l -1,2 -1,1 -1,1 -1,1 -4,1 v 1 l -1,2 -2,-1 z"
       id="path2078"
       sodipodi:nodetypes="cccccccccccccccccccccccccccccccccccccccccccccccccc" />
    <path
       style="fill:#ffffff;fill-opacity:1;stroke:none;stroke-width:0.188976;stroke-linecap:butt;stroke-linejoin:miter;stroke-miterlimit:4;stroke-dasharray:none;stroke-opacity:1"
       d="m 16,31 -3,-2 -1,-2 1,-2 h -1 l 1,-2 h -1 l 1,-2 1,-1 -1,-1 V 18 L 10,16 9,14 c 0,0.171536 0,-0.6664 0,-1 l 3,1 V 13 L 9,12 v 0 H 7 L 5,11 H 7 L 6,10 4,9 2,8 V 8 H 1 L 2,7 1,5 3,7 5,8 4,6 C 4,6 3.95241,4.9048175 4,5 V 4 L 3,2 4,3 6,1 5,3 V 4 L 7,2 5,5 v 1 l 1,2 1,1 1,1 1,1 4,1 v 1 l 1,2 2,-1 z"
       id="path2110"
       sodipodi:nodetypes="cccccccccccccccccccccccccccccccccccccccccccccccccc" />
  </g>
</svg>
