<?xml version="1.0" encoding="UTF-8" standalone="no"?>
<!-- Generator: Blender, SVG Export for Grease Pencil - v1.0 -->

<svg
   version="1.0"
   x="0px"
   y="0px"
   width="222"
   height="222"
   viewBox="0 0 222 222"
   id="svg22"
   sodipodi:docname="SVG.svg"
   inkscape:version="1.2 (dc2aedaf03, 2022-05-15)"
   inkscape:export-filename="..\Pictures\SeAT\logo.png"
   inkscape:export-xdpi="91.185135"
   inkscape:export-ydpi="91.185135"
   xmlns:inkscape="http://www.inkscape.org/namespaces/inkscape"
   xmlns:sodipodi="http://sodipodi.sourceforge.net/DTD/sodipodi-0.dtd"
   xmlns:xlink="http://www.w3.org/1999/xlink"
   xmlns="http://www.w3.org/2000/svg"
   xmlns:svg="http://www.w3.org/2000/svg">
  <defs
     id="defs26">
    <color-profile
       name="sRGB-IEC61966-2.1"
       xlink:href="../../../Windows/system32/spool/drivers/color/sRGB%20Color%20Space%20Profile.icm"
       id="color-profile1583" />
    <linearGradient
       inkscape:collect="always"
       id="linearGradient891">
      <stop
         style="stop-color:#ffde22;stop-opacity:1;"
         offset="0"
         id="stop887" />
      <stop
         style="stop-color:#ff592b;stop-opacity:1;"
         offset="1"
         id="stop889" />
    </linearGradient>
    <linearGradient
       inkscape:collect="always"
       xlink:href="#linearGradient891"
       id="linearGradient893"
       x1="10.205597"
       y1="110.86363"
       x2="212.34381"
       y2="110.86363"
       gradientUnits="userSpaceOnUse" />
    <linearGradient
       inkscape:collect="always"
       xlink:href="#linearGradient891"
       id="linearGradient1522"
       gradientUnits="userSpaceOnUse"
       x1="10.205597"
       y1="110.86363"
       x2="212.34381"
       y2="110.86363" />
    <linearGradient
       inkscape:collect="always"
       xlink:href="#linearGradient891"
       id="linearGradient1524"
       gradientUnits="userSpaceOnUse"
       x1="10.205597"
       y1="110.86363"
       x2="212.34381"
       y2="110.86363" />
  </defs>
  <sodipodi:namedview
     id="namedview24"
     pagecolor="none"
     bordercolor="#eeeeee"
     borderopacity="1"
     showgrid="false" />
  <g
     id="blender_frame_1">
    <g
       id="blender_object_GPencil">
      <!--Layer: Trace-->
      <g
         id="Trace"
         style="fill:url(#linearGradient893);fill-opacity:1">
        <polygon
           fill="#F7BD00"
           stroke="none"
           fill-opacity="1"
           points="121.49051,10.466492 122.02811,10.466492 122.5657,10.466492 123.1033,10.46344 123.64087,10.684143 124.17847,10.732727 124.71606,10.735229 125.25369,10.735291 125.79126,10.732239 126.32886,10.952942 126.86646,11.001587 127.40405,11.004028 127.94165,11.073364 128.47925,11.261292 129.01685,11.272339 129.55444,11.342041 130.09201,11.53009 130.62961,11.610352 131.16721,11.798889 131.7048,11.87915 132.24237,12.067627 132.77997,12.075684 133.31757,12.296936 133.85516,12.342468 134.39276,12.565613 134.93036,12.614319 135.46796,12.685974 136.00555,12.874084 136.54312,12.954346 137.08072,13.139771 137.61832,13.371521 138.15591,13.417603 138.69351,13.640808 139.23111,13.758728 139.76871,13.946045 140.30631,14.177979 140.84387,14.223999 141.38147,14.447144 141.91907,14.565063 142.45666,14.75238 142.99423,14.984375 143.53183,15.102661 144.06943,15.290039 144.60702,15.521912 145.14462,15.640259 145.68222,15.899902 146.21985,16.095947 146.75742,16.328247 147.29498,16.446655 147.83261,16.706299 148.37021,16.902405 148.90778,17.134644 149.44537,17.253052 149.98297,17.512695 150.52057,17.70874 151.05814,17.937988 151.59573,18.204773 152.13333,18.47345 152.67093,18.742249 153.20853,19.014099 153.74612,19.134521 154.28372,19.394287 154.82132,19.662659 155.35892,19.931396 155.89648,20.200195 156.43408,20.468933 156.97171,20.737793 157.50928,21.006531 158.04688,21.275391 158.58447,21.544128 159.12207,21.809875 159.65964,22.227051 160.1972,22.504944 160.73483,22.774231 161.27243,23.042969 161.81003,23.311768 162.3476,23.580566 162.88522,23.921692 163.42282,24.226868 163.96039,24.646179 164.49795,24.996399 165.03558,25.305176 165.57318,25.572937 166.11075,25.990234 166.64835,26.340393 167.18597,26.646057 167.72357,27.065308 168.26114,27.343262 168.79874,27.681702 169.33633,28.13855 169.87393,28.487549 170.41153,28.944885 170.9491,29.293945 171.48669,29.751282 172.02429,30.100281 172.56186,30.557678 173.09949,30.909851 173.63711,31.215576 174.17468,31.704102 174.71228,32.24231 175.24988,32.559082 175.78748,33.048035 176.32504,33.586243 176.86264,33.903015 177.40024,34.392029 177.93784,34.927185 178.4754,35.395447 179.013,35.745056 179.55057,36.271545 180.0882,36.808594 180.62579,37.346191 181.16336,37.883789 181.70096,38.421387 182.23859,38.958984 182.77615,39.496582 183.31372,40.03418 183.85138,40.571777 184.38895,41.109375 184.92654,41.646973 185.46725,42.18457 185.78412,42.722107 186.2731,43.259705 186.80823,43.797302 187.3457,44.3349 187.81409,44.872498 188.1637,45.410095 188.69025,45.947693 189.15808,46.485291 189.50772,47.022888 190.03732,47.560486 190.35367,48.098083 190.84573,48.635681 191.16019,49.173279 191.65213,49.710876 191.96655,50.248413 192.45544,50.786011 192.92139,51.323608 193.27396,51.861206 193.5798,52.398804 193.99902,52.93634 194.3493,53.473999 194.65497,54.011597 195.07419,54.549194 195.42447,55.086792 195.73013,55.62439 196.14941,56.161987 196.49963,56.699524 196.80844,57.237122 197.07925,57.774719 197.34506,58.312317 197.7623,58.849915 198.04013,59.387512 198.30936,59.92511 198.65048,60.462708 198.95883,61.000305 199.22653,61.537903 199.64386,62.0755 199.92172,62.613098 200.19095,63.150696 200.45978,63.688293 200.72858,64.22583 200.99738,64.763428 201.26617,65.301025 201.53494,65.838623 201.80377,66.376221 202.07254,66.913818 202.34445,67.451416 202.46481,67.989014 202.72458,68.526611 202.99292,69.064209 203.26169,69.601807 203.53052,70.139404 203.72699,70.677002 203.95621,71.214539 204.22613,71.752136 204.34641,72.289734 204.60614,72.827362 204.80219,73.36496 205.03143,73.902557 205.3013,74.440094 205.42157,74.977753 205.68131,75.51532 205.87738,76.052917 206.10971,76.590515 206.22809,77.128113 206.4154,77.66571 206.64731,78.203247 206.76569,78.740875 206.95612,79.278473 207.03647,79.816071 207.22189,80.353668 207.45371,80.891266 207.57205,81.428864 207.7594,81.966431 207.9913,82.504028 208.10965,83.041626 208.30008,83.579224 208.38049,84.116821 208.569,84.654419 208.64926,85.192017 208.83777,85.729584 208.91806,86.267181 209.1066,86.804779 209.18686,87.342377 209.3754,87.879974 209.45569,88.417572 209.64416,88.95517 209.72449,89.492737 209.91299,90.030396 209.92404,90.567932 209.99381,91.10553 210.18179,91.643127 210.18976,92.180725 210.41101,92.718292 210.45962,93.25589 210.45901,93.793488 210.67981,94.331085 210.72845,94.868683 210.80008,95.406281 210.98816,95.943848 210.99924,96.481445 211.06897,97.019043 211.25699,97.556641 211.26804,98.094238 211.26859,98.631836 211.2655,99.169434 211.48624,99.707001 211.53485,100.2446 211.53729,100.7822 211.53742,101.31979 211.6066,101.85739 211.79459,102.39499 211.80563,102.93259 211.80618,103.47015 211.8031,104.00775 212.02383,104.54535 212.07245,105.08295 212.07492,105.62054 212.07501,106.15811 212.07501,106.69577 212.07193,107.23331 212.29263,107.7709 212.34122,108.3085 212.34369,108.8461 212.34381,109.3837 212.34381,109.92133 212.27463,110.45886 212.08664,110.99646 212.00946,111.53406 211.53415,112.07166 210.99966,112.54004 210.46222,112.8205 209.92465,113.09296 209.38702,113.14102 208.84946,113.36432 208.31186,113.41305 207.77426,113.41553 207.23666,113.48483 206.69904,113.67282 206.16147,113.6839 205.6239,113.68442 205.08627,113.68442 204.54868,113.68448 204.01111,113.68448 203.47351,113.68448 202.93591,113.75366 202.39831,113.94159 201.86072,113.95267 201.32312,113.95319 200.78552,113.95325 200.24793,113.95325 199.71036,113.95325 199.17276,113.95325 198.63516,113.95325 198.09757,113.95325 197.55997,113.95325 197.0224,113.95325 196.4848,113.95325 195.94717,113.95325 195.40961,113.95325 194.87204,113.95325 194.33441,113.95325 193.79684,113.95325 193.25925,113.95325 192.72165,113.95325 192.18405,113.95325 191.64645,113.95325 191.10886,113.95325 190.57129,113.95325 190.03366,113.95325 189.49606,113.95325 188.9585,113.95325 188.4209,113.95325 187.8833,113.95325 187.3457,113.95325 186.80811,113.95325 186.27054,113.95325 185.73291,113.95325 185.19531,113.95325 184.65775,113.95325 184.12015,113.95325 183.58255,113.95325 183.04495,113.95325 182.50738,113.95325 181.96979,113.95325 181.43219,113.95325 180.89456,113.95325 180.357,113.95325 179.8194,113.95325 179.2818,113.95325 178.74423,113.95325 178.20664,113.95325 177.66904,113.95325 177.13144,113.95325 176.59384,113.95325 176.05624,113.95325 175.51868,113.95325 174.98105,113.95325 174.44345,113.95325 173.90588,113.95325 173.36829,113.95325 172.83066,113.95325 172.29309,113.95325 171.75549,113.95325 171.21793,113.95325 170.6803,113.95325 170.14273,113.95325 169.60513,113.95325 169.06753,113.95325 168.52997,113.95325 167.99234,113.95325 167.45474,113.95325 166.91717,113.95325 166.37955,113.95325 165.84198,113.95325 165.30438,113.95325 164.76678,113.95325 164.22919,113.95325 163.69159,113.95325 163.15402,113.95325 162.61642,113.95325 162.07883,113.95325 161.54123,113.95325 161.00363,113.95325 160.46606,113.95325 159.92844,113.95325 159.39084,113.95325 158.85327,113.88711 158.31567,113.48157 157.77808,113.13507 157.24048,112.60867 156.70288,112.07166 156.16531,111.53406 155.62769,110.99646 155.09012,110.45886 154.55252,109.92133 154.01492,109.3837 153.47729,108.8461 152.93973,108.3085 152.40216,107.7709 151.86456,107.23331 151.32693,106.69577 150.78937,106.15811 150.2518,105.62054 149.71417,105.08295 149.17658,104.54535 148.63898,104.00775 148.10138,103.47015 147.56378,102.93259 147.02622,102.39499 146.48862,101.85739 145.95102,101.31979 145.41342,100.7822 144.87582,100.2446 144.33826,99.707001 143.80066,99.169434 143.26306,98.631836 142.72546,98.094238 142.18787,97.556641 141.65027,97.019043 141.1127,96.481445 140.57507,95.943848 140.03751,95.406281 139.49994,94.868683 138.96228,94.331085 138.42471,93.793488 137.88711,93.25589 137.34952,92.718292 136.81192,92.180725 136.27432,91.643127 135.73675,91.10553 135.19916,90.567932 134.66156,90.030396 134.12396,89.492737 133.5864,88.95517 133.0488,88.417572 132.51117,87.879974 131.97357,87.342377 131.436,86.804779 130.89841,86.267181 130.36081,85.729584 129.82321,85.192017 129.28561,84.654419 128.74802,84.116821 128.21042,83.579224 127.67285,83.041626 127.13525,82.504028 126.59766,81.966431 126.06006,81.428864 125.52246,80.891266 124.98489,80.353668 124.4473,79.816071 123.9097,79.278473 123.3721,78.740875 122.83453,78.203247 122.29691,77.66571 121.75931,77.128113 121.22174,76.590515 120.68414,76.052917 120.14655,75.51532 119.60892,74.977753 119.07135,74.440094 118.53375,73.902557 117.99616,73.36496 117.45856,72.827362 116.92099,72.289734 116.38339,71.752136 115.84579,71.214539 115.3082,70.677002 114.7706,70.139404 114.23303,69.598694 113.69544,69.281799 113.15784,68.792847 112.62024,68.25769 112.08264,67.720215 111.54504,67.182617 111.00745,66.64502 110.46988,66.107422 109.93225,65.569885 109.39465,65.032288 108.85706,64.49469 108.31949,63.957092 107.78189,63.419434 107.24429,62.951111 106.7067,62.601501 106.16913,62.07489 105.63153,61.537903 105.09393,61.000305 104.55634,60.531921 104.01874,60.182251 103.48117,59.655701 102.94354,59.187866 102.40595,58.838257 101.86838,58.380981 101.33078,58.101074 100.79318,57.75946 100.25558,57.45105 99.717987,57.252563 99.180389,57.020081 98.642792,56.901733 98.105194,56.711304 97.567627,56.703186 97.030029,56.481995 96.492401,56.43335 95.954834,56.43396 95.417267,56.213135 94.879669,56.16449 94.342072,56.162109 93.804474,56.161987 93.266876,56.161987 92.729279,56.161987 92.191681,56.161987 91.654083,56.158875 91.116516,56.379578 90.578888,56.428162 90.04129,56.427551 89.503723,56.648376 88.966125,56.693909 88.428528,56.917053 87.89093,57.034973 87.353348,57.222351 86.81575,57.451111 86.278168,57.717896 85.74057,57.986572 85.202988,58.255371 84.665375,58.52417 84.127808,58.865234 83.590195,59.170471 83.052582,59.589722 82.515015,59.936829 81.977417,60.46637 81.439819,60.782715 80.902237,61.271667 80.364624,61.806824 79.823944,62.344238 79.507065,62.881836 79.018066,63.419434 78.552124,63.957092 78.199524,64.49469 77.893723,65.032288 77.474472,65.569885 77.196503,66.107422 76.927261,66.64502 76.658447,67.182617 76.386551,67.720215 76.26619,68.257812 76.07872,68.79541 75.846863,69.333008 75.7285,69.870544 75.538055,70.408203 75.457672,70.945801 75.26915,71.483398 75.261154,72.020996 75.039886,72.558533 74.991272,73.096191 74.988815,73.633728 74.988708,74.171326 74.988708,74.708923 74.988708,75.246521 74.988708,75.784119 74.988708,76.321686 74.98558,76.859283 75.206314,77.396881 75.254929,77.934479 75.326569,78.472076 75.514648,79.009674 75.594925,79.547302 75.780334,80.084839 76.012146,80.622437 76.130478,81.160034 76.390121,81.697632 76.658463,82.235229 76.927246,82.772858 77.192947,83.310455 77.682449,83.847992 77.996765,84.38559 78.485641,84.923187 79.023865,85.460785 79.340622,85.998413 79.829605,86.536011 80.364761,87.073608 80.905334,87.611145 81.222214,88.148743 81.711182,88.68634 82.246338,89.223938 82.783798,89.761566 83.321396,90.299164 83.789795,90.836761 84.13942,91.374298 84.665939,91.911896 85.203003,92.449493 85.74057,92.987122 86.278168,93.524719 86.81575,94.062317 87.353348,94.599854 87.89093,95.137451 88.428528,95.675049 88.969208,96.212677 89.286102,96.750275 89.775085,97.287872 90.310242,97.825409 90.847717,98.363007 91.385284,98.900604 91.922882,99.438232 92.46048,99.97583 92.998077,100.51343 93.535675,101.05102 94.073242,101.58856 94.61084,102.12616 95.148438,102.66379 95.686035,103.20139 96.223633,103.73898 96.76123,104.27658 97.298798,104.81418 97.836426,105.35171 98.374023,105.88931 98.911621,106.42694 99.449219,106.96454 99.986786,107.50214 100.52438,108.03973 101.06198,108.57727 101.59958,109.11487 102.13718,109.6525 102.67474,110.19009 103.21234,110.72769 103.74994,111.26529 104.29065,111.80289 104.60751,112.34049 105.0965,112.87805 105.63162,113.41565 106.16913,113.95325 106.7067,114.49084 107.24429,115.02844 107.78189,115.56604 108.31949,116.10361 108.85706,116.6412 109.39465,117.1788 109.93225,117.7164 110.46988,118.254 111.00745,118.7916 111.54504,119.32916 112.08264,119.86676 112.62024,120.40436 113.15784,120.94196 113.69544,121.47955 114.23303,122.01715 114.7706,122.55475 115.3082,123.09235 115.84579,123.62991 116.38339,124.16751 116.92099,124.70511 117.45856,125.24271 117.99616,125.7803 118.53375,126.3179 119.07135,126.85547 119.60892,127.39307 120.14655,127.93066 120.68414,128.46826 121.22174,129.00586 121.75931,129.54346 122.29691,130.08105 122.83453,130.61862 123.37518,131.15622 123.69208,131.69382 124.18109,132.23141 124.71622,132.76901 125.25369,133.30661 125.79126,133.84424 126.32886,134.38178 126.86646,134.91937 127.40405,135.45697 127.94165,135.99457 128.47925,136.53217 129.01685,137.06976 129.55444,137.60733 130.09201,138.14493 130.63272,138.68253 130.94959,139.22012 131.43857,139.75772 131.97369,140.29532 132.51117,140.83289 133.0488,141.37048 133.5864,141.90808 134.12705,142.44568 134.44391,142.98328 134.93604,143.52087 135.25354,144.05847 135.52481,144.59607 135.72452,145.13364 135.80536,145.67123 135.9939,146.20883 136.00497,146.74643 136.00552,147.28403 136.00555,147.82163 136.00555,148.35919 136.00864,148.89679 135.78793,149.43439 135.74243,149.97198 135.52234,150.50958 135.25598,151.04718 134.98734,151.58478 134.64935,152.12234 134.12338,152.65994 133.58633,153.19754 133.0488,153.66595 132.51117,153.94635 131.97357,154.21881 131.436,154.27005 130.89841,154.27261 130.36081,154.27274 129.82321,154.27274 129.28561,154.27274 128.74802,154.27585 128.21042,154.05512 127.67285,154.00961 127.13525,153.78952 126.59766,153.52011 126.06006,153.39984 125.52246,153.14011 124.98489,152.87174 124.4473,152.60608 123.9097,152.18887 123.3721,151.83872 122.83453,151.53302 122.29691,151.04456 121.75931,150.50946 121.22174,149.97198 120.68414,149.43439 120.14655,148.89371 119.60892,148.57684 119.07135,148.08783 118.53375,147.55267 117.99616,147.01523 117.45856,146.47763 116.92099,145.94003 116.38339,145.40243 115.84579,144.86487 115.3082,144.32727 114.7706,143.78967 114.23303,143.25207 113.69544,142.71448 113.15784,142.17685 112.62024,141.63931 112.08264,141.10172 111.54504,140.56412 111.00745,140.02652 110.46988,139.48889 109.93225,138.95129 109.39465,138.41376 108.85706,137.87616 108.31949,137.33856 107.78189,136.80096 107.24429,136.26334 106.7067,135.72574 106.16913,135.18814 105.63153,134.6506 105.09393,134.11301 104.55634,133.57541 104.01874,133.03778 103.48117,132.50018 102.94354,131.96258 102.40595,131.42505 101.86838,130.88745 101.33078,130.34985 100.79318,129.81223 100.25558,129.27463 99.717987,128.73703 99.180389,128.19943 98.642792,127.6619 98.105194,127.1243 97.567627,126.5867 97.030029,126.04907 96.492401,125.51148 95.954834,124.97388 95.417267,124.43634 94.879669,123.89874 94.342072,123.36114 93.804474,122.82352 93.266876,122.28592 92.729279,121.74832 92.191681,121.21072 91.654083,120.67319 91.116516,120.13559 90.578888,119.59796 90.04129,119.06036 89.503723,118.52277 88.966125,117.98517 88.428528,117.44757 87.89093,116.90997 87.353348,116.37241 86.81575,115.83481 86.278168,115.29721 85.74057,114.75961 85.202988,114.22201 84.665375,113.68448 84.127808,113.14685 83.590195,112.60925 83.052582,112.07166 82.515015,111.53406 82.046631,110.99646 81.696991,110.45886 81.170456,109.92133 80.633392,109.3837 80.095825,108.8461 79.558258,108.3085 79.020645,107.7709 78.483047,107.23331 77.945465,106.69577 77.407867,106.15811 76.870285,105.62054 76.332672,105.08295 75.795105,104.54535 75.257492,104.00775 74.719894,103.47015 74.17923,102.93259 73.862335,102.39499 73.373337,101.85739 72.838211,101.31979 72.30072,100.7822 71.763153,100.2446 71.225525,99.707001 70.687943,99.169434 70.219559,98.631836 69.869919,98.094238 69.343399,97.556641 68.806351,97.019043 68.265686,96.481445 67.948807,95.943848 67.459808,95.406281 66.921585,94.868683 66.604813,94.331085 66.115845,93.793488 65.649887,93.25589 65.300385,92.718292 64.843063,92.180725 64.563171,91.643127 64.221542,91.10553 63.913162,90.567932 63.642349,90.030396 63.44577,89.492737 63.216522,88.95517 62.949722,88.417572 62.677917,87.879974 62.557556,87.342377 62.297806,86.804779 62.101746,86.267181 61.869415,85.729584 61.751068,85.192017 61.563736,84.654419 61.331833,84.116821 61.285767,83.579224 61.062576,83.041626 61.016953,82.504028 60.793762,81.966431 60.745056,81.428864 60.673401,80.891266 60.485306,80.353668 60.474258,79.816071 60.40451,79.278473 60.216507,78.740875 60.205444,78.203247 60.204895,77.66571 60.20488,77.128113 60.207977,76.590515 59.987259,76.052917 59.93866,75.51532 59.936203,74.977753 59.936081,74.440094 59.936081,73.902557 59.936081,73.36496 60.00528,72.827362 60.193237,72.289734 60.2043,71.752136 60.204849,71.214539 60.20488,70.677002 60.201767,70.139404 60.422501,69.601807 60.471115,69.064209 60.470444,68.526611 60.691284,67.989014 60.736801,67.451416 60.959961,66.913818 61.0056,66.376221 61.22876,65.838623 61.274399,65.301025 61.497559,64.763428 61.615479,64.22583 61.875107,63.688293 62.071167,63.150696 62.303467,62.613098 62.421844,62.0755 62.681488,61.537903 62.94986,61.000305 63.218628,60.462708 63.487396,59.92511 63.756226,59.387512 64.025009,58.849915 64.290726,58.312317 64.707916,57.774719 64.985779,57.237122 65.327316,56.699524 65.632599,56.161987 66.051819,55.62439 66.398972,55.086792 66.928452,54.549194 67.244797,54.011597 67.73378,53.473999 68.268906,52.93634 68.737167,52.398804 69.086777,51.861206 69.613327,51.323608 70.150391,50.786011 70.687943,50.317627 71.225525,49.968018 71.763153,49.441467 72.300735,48.973633 72.838303,48.624023 73.375916,48.09436 73.913513,47.778076 74.451126,47.358276 74.988708,47.007996 75.526276,46.702332 76.063889,46.283081 76.601486,46.005127 77.139053,45.663635 77.676666,45.355225 78.214264,45.084412 78.751846,44.815552 79.289444,44.546753 79.827026,44.277954 80.364624,44.009094 80.902237,43.812622 81.439819,43.580261 81.977417,43.461914 82.515015,43.202271 83.052582,43.006226 83.590195,42.773926 84.127808,42.727844 84.665375,42.504639 85.202988,42.386719 85.74057,42.196289 86.278168,42.115906 86.81575,41.927368 87.353348,41.919434 87.89093,41.69812 88.428528,41.649536 88.966125,41.647034 89.503723,41.577759 90.04129,41.389771 90.578888,41.378723 91.116516,41.378174 91.654083,41.378113 92.191681,41.378113 92.729279,41.378113 93.266876,41.378113 93.804474,41.378113 94.342072,41.378113 94.879669,41.378113 95.417267,41.378113 95.954834,41.378113 96.492401,41.378113 97.030029,41.447388 97.567627,41.635315 98.105194,41.646362 98.642792,41.646912 99.180389,41.716125 99.717987,41.904114 100.25558,41.912109 100.79318,42.133362 101.33078,42.181946 101.86838,42.253601 102.40595,42.441711 102.94354,42.449646 103.48117,42.670898 104.01874,42.788757 104.55634,42.976074 105.09393,43.207947 105.63153,43.326355 106.16913,43.585938 106.7067,43.854309 107.24429,44.123108 107.78189,44.391846 108.31949,44.660706 108.85706,44.926331 109.39465,45.343567 109.93225,45.693726 110.46988,45.999451 111.00745,46.41864 111.54504,46.765808 112.08264,47.223022 112.62024,47.572083 113.15784,48.101746 113.69544,48.41803 114.23303,48.907043 114.7706,49.442139 115.3082,49.910461 115.84579,50.260071 116.38339,50.786621 116.92099,51.323669 117.45856,51.864319 117.99616,52.181213 118.53375,52.670166 119.07135,53.205322 119.60892,53.742798 120.14655,54.280396 120.68414,54.817932 121.22174,55.355591 121.75931,55.893127 122.29691,56.361572 122.83453,56.711182 123.3721,57.237732 123.9097,57.77478 124.4473,58.312317 124.98489,58.849915 125.52246,59.387512 126.06006,59.92511 126.59766,60.462708 127.13525,61.000305 127.67285,61.537903 128.21042,62.0755 128.74802,62.613098 129.28561,63.150696 129.82321,63.688293 130.36081,64.22583 130.89841,64.763428 131.436,65.301025 131.97357,65.838623 132.51117,66.376221 133.0488,66.913818 133.5864,67.451416 134.12396,67.989014 134.66156,68.526611 135.19916,69.064209 135.73675,69.601807 136.27432,70.139404 136.81192,70.677002 137.34952,71.214539 137.88711,71.752136 138.42471,72.289734 138.96228,72.827362 139.49994,73.36496 140.03751,73.902557 140.57507,74.440094 141.1127,74.977753 141.65027,75.51532 142.18787,76.052917 142.72546,76.590515 143.26306,77.128113 143.80066,77.66571 144.33826,78.203247 144.87582,78.740875 145.41342,79.278473 145.95102,79.816071 146.48862,80.353668 147.02622,80.891266 147.56378,81.428864 148.10138,81.966431 148.63898,82.504028 149.17658,83.041626 149.71417,83.579224 150.2518,84.116821 150.78937,84.654419 151.32693,85.192017 151.86456,85.729584 152.40216,86.267181 152.93973,86.804779 153.47729,87.342377 154.01492,87.879974 154.55252,88.417572 155.09012,88.95517 155.62769,89.423553 156.16531,89.773132 156.70288,90.299744 157.24048,90.836761 157.77808,91.374298 158.31567,91.911896 158.85327,92.449493 159.39084,92.987122 159.92844,93.524719 160.46606,94.062317 161.00363,94.599854 161.54123,95.137451 162.07883,95.675049 162.61642,96.212677 163.15402,96.750275 163.69159,97.287872 164.22919,97.825409 164.76678,98.363007 165.30438,98.900604 165.84198,99.438232 166.37955,99.97583 166.91717,100.4473 167.45474,100.5101 167.99234,100.51327 168.52997,100.51343 169.06753,100.51343 169.60513,100.51343 170.14273,100.51343 170.6803,100.51343 171.21793,100.51343 171.75549,100.51343 172.29309,100.51343 172.83066,100.51343 173.36829,100.51343 173.90588,100.51343 174.44345,100.51343 174.98105,100.51343 175.51868,100.51343 176.05624,100.51343 176.59384,100.51343 177.13144,100.51343 177.66904,100.51343 178.20664,100.51343 178.74423,100.51343 179.2818,100.51343 179.8194,100.51343 180.357,100.51343 180.89456,100.51343 181.43219,100.51343 181.96979,100.51343 182.50738,100.51343 183.04495,100.51343 183.58255,100.51343 184.12015,100.51343 184.65775,100.51343 185.19531,100.51343 185.73291,100.51343 186.27054,100.51343 186.80811,100.51343 187.3457,100.51343 187.8833,100.51343 188.4209,100.51343 188.9585,100.51343 189.49606,100.51343 190.03366,100.51343 190.57129,100.51343 191.10886,100.51343 191.64645,100.51654 192.18405,100.29575 192.72165,100.24716 193.25925,100.2478 193.79684,100.02698 194.33441,99.90918 194.87204,99.652679 195.40961,99.166718 195.8811,98.631683 195.94083,98.094238 196.16467,97.556641 196.14423,97.019043 195.95871,96.481445 195.94775,95.943848 195.95032,95.406281 195.72958,94.868683 195.68097,94.331085 195.60931,93.793488 195.42127,93.25589 195.4133,92.718292 195.19202,92.180725 195.14651,91.643127 194.92331,91.10553 194.87769,90.567932 194.65454,90.030396 194.60889,89.492737 194.38571,88.95517 194.34009,88.417572 194.11694,87.879974 193.99899,87.342377 193.81168,86.804779 193.5798,86.267181 193.46143,85.729584 193.27408,85.192017 193.04221,84.654419 192.92383,84.116821 192.73648,83.579224 192.50458,83.041626 192.38626,82.504028 192.19888,81.966431 191.97009,81.428864 191.70026,80.891266 191.57996,80.353668 191.32022,79.816071 191.12415,79.278473 190.89496,78.740875 190.62503,78.203247 190.50476,77.66571 190.24503,77.128113 189.97669,76.590515 189.70789,76.052917 189.51141,75.51532 189.28217,74.977753 189.01538,74.440094 188.7467,73.902557 188.47788,73.36496 188.20908,72.827362 187.94028,72.289734 187.67148,71.752136 187.40268,71.214539 187.13388,70.677002 186.86511,70.139404 186.59628,69.601807 186.25519,69.064209 185.94687,68.526611 185.67606,67.989014 185.40717,67.451416 185.14145,66.913818 184.72424,66.376221 184.44638,65.838623 184.10483,65.301025 183.79645,64.763428 183.52878,64.22583 183.11148,63.688293 182.76132,63.150696 182.45563,62.613098 182.03635,62.0755 181.68613,61.537903 181.38043,61.000305 180.88888,60.462708 180.57449,59.92511 180.08252,59.387512 179.7681,58.849915 179.27924,58.312317 178.741,57.774719 178.42425,57.237122 177.93527,56.699524 177.40012,56.161987 176.93185,55.62439 176.58221,55.086792 176.05569,54.549194 175.51865,54.011597 174.98105,53.473999 174.44345,52.93634 173.90588,52.398804 173.36829,51.861206 172.83066,51.323608 172.29309,50.786011 171.75549,50.248413 171.21793,49.710876 170.6803,49.173279 170.14273,48.635681 169.60513,48.098083 169.06753,47.560486 168.52997,47.022888 167.99234,46.485291 167.45474,45.947693 166.91717,45.479309 166.37955,45.1297 165.84198,44.603149 165.30438,44.066101 164.76678,43.597717 164.22919,43.248108 163.69159,42.721558 163.15402,42.253662 162.61642,41.904114 162.07883,41.374512 161.54123,41.058167 161.00363,40.56604 160.46606,40.251648 159.92844,39.759705 159.39084,39.445312 158.85327,39.025574 158.31567,38.675293 157.77808,38.366577 157.24048,38.098816 156.70288,37.681458 156.16531,37.33136 155.62769,37.022583 155.09012,36.75177 154.55252,36.485901 154.01492,36.068726 153.47729,35.790894 152.93973,35.521606 152.40216,35.252808 151.86456,34.911682 151.32693,34.603333 150.78937,34.332581 150.2518,34.06366 149.71417,33.794861 149.17658,33.526062 148.63898,33.257263 148.10138,33.060791 147.56378,32.831543 147.02622,32.564758 146.48862,32.296021 145.95102,32.02417 145.41342,31.903809 144.87582,31.644043 144.33826,31.375671 143.80066,31.179199 143.26306,30.949951 142.72546,30.680054 142.18787,30.559753 141.65027,30.372314 141.1127,30.143494 140.57507,29.873657 140.03751,29.753418 139.49994,29.565918 138.96228,29.334106 138.42471,29.215698 137.88711,29.028381 137.34952,28.796448 136.81192,28.678101 136.27432,28.487671 135.73675,28.407227 135.19916,28.221863 134.66156,27.990051 134.12396,27.94397 133.5864,27.720825 133.0488,27.602905 132.51117,27.412476 131.97357,27.332031 131.436,27.143555 130.89841,27.063293 130.36081,26.874817 129.82321,26.794495 129.28561,26.605957 128.74802,26.597961 128.21042,26.37677 127.67285,26.328064 127.13525,26.25647 126.59766,26.068359 126.06006,26.060425 125.52246,25.839111 124.98489,25.790527 124.4473,25.791199 123.9097,25.570374 123.3721,25.521729 122.83453,25.519287 122.29691,25.449951 121.75931,25.262024 121.22174,25.250854 120.68414,25.253479 120.14655,25.032715 119.60892,24.984192 119.07135,24.981628 118.53375,24.981506 117.99616,24.984619 117.45856,24.763916 116.92099,24.715332 116.38339,24.71283 115.84579,24.712769 115.3082,24.712769 114.7706,24.712769 114.23303,24.712769 113.69544,24.712769 113.15784,24.643555 112.62024,24.455566 112.08264,24.444519 111.54504,24.44397 111.00745,24.44397 110.46988,24.44397 109.93225,24.44397 109.39465,24.44397 108.85706,24.440857 108.31949,24.661621 107.78189,24.710144 107.24429,24.712585 106.7067,24.712769 106.16913,24.712769 105.63153,24.712769 105.09393,24.712769 104.55634,24.709656 104.01874,24.93042 103.48117,24.979004 102.94354,24.981445 102.40595,24.981506 101.86838,25.050781 101.33078,25.238708 100.79318,25.249756 100.25558,25.247192 99.717987,25.467957 99.180389,25.516541 98.642792,25.519043 98.105194,25.588318 97.567627,25.776306 97.030029,25.787354 96.492401,25.857117 95.954834,26.045166 95.417267,26.053101 94.879669,26.274353 94.342072,26.319885 93.804474,26.54303 93.266876,26.591736 92.729279,26.663391 92.191681,26.851501 91.654083,26.931763 91.116516,27.120239 90.578888,27.200562 90.04129,27.389038 89.503723,27.46936 88.966125,27.657898 88.428528,27.738159 87.89093,27.926636 87.353348,28.006897 86.81575,28.192383 86.278168,28.424133 85.74057,28.54248 85.202988,28.729797 84.665375,28.961792 84.127808,29.080139 83.590195,29.267456 83.052582,29.499329 82.515015,29.617676 81.977417,29.805054 81.439819,30.033813 80.902237,30.303711 80.364624,30.424011 79.827026,30.683716 79.289444,30.879822 78.751846,31.109009 78.214264,31.378906 77.676666,31.499207 77.139053,31.758911 76.601486,32.027222 76.063889,32.223755 75.526276,32.453003 74.988708,32.719788 74.451126,32.988464 73.913513,33.257263 73.375916,33.526062 72.838303,33.794861 72.300735,34.06366 71.763153,34.332458 71.225525,34.601257 70.687943,34.870056 70.150345,35.211121 69.612762,35.519531 69.075165,35.790283 68.537582,36.059204 67.999985,36.328003 67.462402,36.593689 66.924805,37.010864 66.387222,37.361084 65.849625,37.666748 65.312012,38.085999 64.774445,38.363953 64.236832,38.705444 63.699234,39.010742 63.161652,39.429993 62.624054,39.780212 62.086441,40.085876 61.548859,40.577454 61.011261,40.891846 60.473663,41.311523 59.936081,41.658691 59.398483,42.115906 58.860901,42.464966 58.323303,42.994568 57.785721,43.310913 57.248123,43.799866 56.710541,44.265808 56.172928,44.615356 55.63533,45.144958 55.097748,45.461304 54.56015,45.950256 54.022552,46.485413 53.48494,47.022888 52.947357,47.560486 52.40976,48.101196 51.872177,48.41803 51.334579,48.907043 50.796997,49.442139 50.259399,49.979614 49.721817,50.517273 49.253403,51.054871 48.903793,51.592468 48.377258,52.130066 47.840225,52.667603 47.302658,53.2052 46.76503,53.742798 46.296646,54.280396 45.947037,54.817932 45.420486,55.355591 44.880371,55.893127 44.563492,56.430725 44.074509,56.968323 43.608551,57.505981 43.259064,58.043579 42.801727,58.581116 42.452652,59.118713 41.995331,59.656311 41.64624,60.193909 41.188919,60.731506 40.836761,61.269104 40.530975,61.806702 40.111725,62.344238 39.761475,62.881836 39.455795,63.419434 39.036545,63.957092 38.686295,64.49469 38.380615,65.032288 37.961349,65.569885 37.683411,66.107422 37.341873,66.64502 37.033478,67.182617 36.762695,67.720215 36.496887,68.257812 36.079651,68.79541 35.801819,69.333008 35.532593,69.870544 35.263779,70.408203 34.99498,70.945801 34.726181,71.483398 34.457382,72.020996 34.188583,72.558533 33.9198,73.096191 33.651001,73.633728 33.382187,74.171326 33.113388,74.708923 32.844589,75.246521 32.57579,75.784119 32.303894,76.321686 32.183517,76.859283 31.923798,77.396881 31.727737,77.934479 31.498505,78.472076 31.23172,79.009674 30.959915,79.547302 30.839539,80.084839 30.6521,80.622437 30.423294,81.160034 30.153442,81.697632 30.033142,82.235229 29.845718,82.772858 29.613815,83.310455 29.495468,83.847992 29.308105,84.38559 29.076202,84.923187 28.95787,85.460785 28.770538,85.998413 28.538635,86.536011 28.420288,87.073608 28.232925,87.611145 28.004135,88.148743 27.734283,88.68634 27.613968,89.223938 27.426529,89.761566 27.197739,90.299164 26.927872,90.836761 26.807602,91.374298 26.547836,91.911896 26.282578,92.38031 25.796188,92.663788 25.261169,92.78479 24.723724,92.975372 24.186127,92.986542 23.648514,92.984009 23.110947,93.204712 22.573334,93.253357 22.035751,93.255768 21.498184,93.25589 20.960571,93.25589 20.422974,93.25589 19.885391,93.25589 19.347763,93.25589 18.810181,93.25589 18.272583,93.25589 17.735001,93.25589 17.197403,93.25589 16.659821,93.25589 16.122223,93.259003 15.58461,93.038269 15.047043,92.989685 14.50946,92.990326 13.971863,92.772552 13.43428,92.506348 12.965866,92.168518 12.682358,91.642487 12.630615,91.105469 12.628006,90.567932 12.627884,90.030396 12.627869,89.492737 12.627869,88.95517 12.697067,88.417572 12.885056,87.879974 12.89299,87.342377 13.114258,86.804779 13.15979,86.267181 13.38295,85.729584 13.428589,85.192017 13.651779,84.654419 13.697388,84.116821 13.920547,83.579224 14.038483,83.041626 14.228912,82.504028 14.309296,81.966431 14.49469,81.428864 14.726486,80.891266 14.772537,80.353668 14.995728,79.816071 15.113663,79.278473 15.30098,78.740875 15.532898,78.203247 15.651215,77.66571 15.838577,77.128113 16.067383,76.590515 16.337234,76.052917 16.457535,75.51532 16.644958,74.977753 16.876862,74.440094 16.995209,73.902557 17.254837,73.36496 17.450928,72.827362 17.68013,72.289734 17.946915,71.752136 18.218704,71.214539 18.339096,70.677002 18.598846,70.139404 18.867188,69.601807 19.063675,69.064209 19.292923,68.526611 19.559708,67.989014 19.8284,67.451416 20.097198,66.913818 20.365997,66.376221 20.634766,65.838623 20.90358,65.301025 21.172379,64.763428 21.441177,64.22583 21.709976,63.688293 21.97876,63.150696 22.247559,62.613098 22.516357,62.0755 22.857468,61.537903 23.165802,61.000305 23.436615,60.462708 23.702423,59.92511 24.119629,59.387512 24.397491,58.849915 24.666718,58.312317 25.007843,57.774719 25.31308,57.237122 25.7323,56.699524 26.08255,56.161987 26.388245,55.62439 26.80748,55.086792 27.157745,54.549194 27.463425,54.011597 27.88269,53.473999 28.232925,52.93634 28.538635,52.398804 29.030167,51.861206 29.344559,51.323608 29.836517,50.786011 30.150955,50.248413 30.570618,49.710876 30.917786,49.173279 31.375015,48.635681 31.724091,48.098083 32.25061,47.560486 32.718445,47.022888 33.068039,46.485291 33.594559,45.947693 34.062424,45.410095 34.412018,44.872498 34.938568,44.3349 35.475586,43.797302 35.94397,43.259705 36.29361,42.722107 36.820129,42.18457 37.357193,41.646973 37.894745,41.109375 38.432358,40.571777 38.969955,40.03418 39.507538,39.496582 40.045135,38.958984 40.582718,38.421387 41.120316,37.883789 41.657898,37.346191 42.195496,36.808594 42.733078,36.34021 43.270691,35.990601 43.808258,35.46405 44.345886,34.927002 44.883499,34.458618 45.421066,34.109009 45.958649,33.582458 46.496246,33.114624 47.033859,32.765015 47.571442,32.238464 48.109039,31.77063 48.646622,31.421021 49.184219,30.963684 49.721817,30.614624 50.259399,30.157288 50.796997,29.808228 51.334579,29.350952 51.872177,29.001892 52.40976,28.544556 52.947357,28.192383 53.48494,27.886536 54.022552,27.467285 54.56015,27.117065 55.097748,26.81134 55.63533,26.392151 56.172928,26.04187 56.710541,25.736206 57.248123,25.316956 57.785721,25.03894 58.323303,24.697449 58.860901,24.389099 59.398483,24.118286 59.936081,23.852478 60.473663,23.435242 61.011261,23.15741 61.548859,22.815857 62.086441,22.507507 62.624054,22.236694 63.161652,21.967834 63.699234,21.699036 64.236832,21.430176 64.774445,21.161438 65.312012,20.892639 65.849625,20.62384 66.387222,20.35498 66.924805,20.086243 67.462402,19.817444 67.999985,19.548645 68.537582,19.279846 69.075165,19.011047 69.612762,18.742249 70.150345,18.545776 70.687943,18.316467 71.225525,18.049683 71.763153,17.777893 72.300735,17.657532 72.838303,17.397766 73.375916,17.129456 73.913513,16.932922 74.451126,16.703735 74.988708,16.433838 75.526276,16.313599 76.063889,16.126099 76.601486,15.894226 77.139053,15.775879 77.676666,15.516235 78.214264,15.32019 78.751846,15.08783 79.289444,14.969482 79.827026,14.782104 80.364624,14.550171 80.902237,14.431885 81.439819,14.241394 81.977417,14.161072 82.515015,13.975647 83.052582,13.743835 83.590195,13.625488 84.127808,13.435059 84.665375,13.354614 85.202988,13.16925 85.74057,12.937439 86.278168,12.891357 86.81575,12.668152 87.353348,12.622559 87.89093,12.399414 88.428528,12.350647 88.966125,12.279053 89.503723,12.090942 90.04129,12.010681 90.578888,11.822205 91.116516,11.741882 91.654083,11.553345 92.191681,11.54541 92.729279,11.324158 93.266876,11.275513 93.804474,11.276123 94.342072,11.055298 94.879669,11.006714 95.417267,11.004211 95.954834,11.007202 96.492401,10.786499 97.030029,10.737915 97.567627,10.735413 98.105194,10.735352 98.642792,10.735291 99.180389,10.666138 99.717987,10.478149 100.25558,10.467102 100.79318,10.466553 101.33078,10.466492 101.86838,10.466492 102.40595,10.466492 102.94354,10.397339 103.48117,10.209351 104.01874,10.198303 104.55634,10.197754 105.09393,10.197754 105.63153,10.197754 106.16913,10.197754 106.7067,10.197754 107.24429,10.197754 107.78189,10.197754 108.31949,10.197754 108.85706,10.197754 109.39465,10.197754 109.93225,10.197754 110.46988,10.197754 111.00745,10.197754 111.54504,10.197754 112.08264,10.197754 112.62024,10.197754 113.15784,10.197754 113.69544,10.197754 114.23303,10.197754 114.7706,10.197754 115.3082,10.197754 115.84579,10.197754 116.38339,10.197754 116.92099,10.197754 117.45856,10.197754 117.99616,10.197754 118.53375,10.197754 119.07135,10.197754 119.53973,10.27002 119.88937,10.286987 120.14655,10.393372 120.41534,10.449707 120.95294,10.465698 "
           id="polygon15"
           style="fill:url(#linearGradient1522);fill-opacity:1" />
        <polygon
           fill="#F7BD00"
           stroke="none"
           fill-opacity="1"
           points="95.417267,67.669006 95.954834,67.786865 96.492401,68.046509 97.030029,68.314819 97.567627,68.580505 98.105194,69.066956 98.642792,69.605042 99.180389,69.921814 99.717987,70.410767 100.25558,70.945862 100.79318,71.483398 101.33078,72.020996 101.86838,72.558533 102.40595,73.026947 102.94354,73.376587 103.48117,73.903076 104.01874,74.440155 104.55634,74.977753 105.09393,75.51532 105.63153,76.052917 106.16913,76.590515 106.7067,77.128113 107.24429,77.66571 107.78189,78.203247 108.31949,78.740875 108.85706,79.278473 109.39465,79.816071 109.93225,80.353668 110.46988,80.891266 111.00745,81.428864 111.54504,81.966431 112.08264,82.434845 112.62024,82.784485 113.15784,83.310974 113.69544,83.848053 114.23303,84.38559 114.7706,84.923187 115.3082,85.460785 115.84579,85.998413 116.38339,86.536011 116.92099,87.073608 117.45856,87.611145 117.99616,88.148743 118.53375,88.68634 119.07135,89.223938 119.60892,89.761566 120.14655,90.299164 120.68414,90.836761 121.22174,91.374298 121.75931,91.911896 122.29691,92.449493 122.83453,92.987122 123.3721,93.524719 123.9097,94.062317 124.4473,94.599854 124.98489,95.137451 125.45328,95.675049 125.80292,96.212677 126.32947,96.750275 126.86649,97.287872 127.40405,97.825409 127.94165,98.363007 128.47925,98.900604 129.01685,99.438232 129.55444,99.97583 130.09201,100.51343 130.62961,101.05102 131.16721,101.58856 131.7048,102.12616 132.24237,102.66379 132.77997,103.20139 133.31757,103.73898 133.85516,104.27658 134.39276,104.81418 134.93036,105.35171 135.46796,105.88931 136.00555,106.42694 136.54312,106.96454 137.08072,107.50214 137.61832,108.03973 138.15591,108.57727 138.69351,109.11487 139.1619,109.6525 139.5115,110.19009 140.03806,110.72769 140.5751,111.26529 141.1127,111.80289 141.65027,112.34049 142.18787,112.87805 142.72546,113.41565 143.26306,113.95325 143.80066,114.49084 144.33826,115.02844 144.87582,115.56604 145.41342,116.10361 145.9541,116.6412 146.27103,117.1788 146.75998,117.7164 147.29513,118.254 147.83261,118.7916 148.37021,119.32916 148.90778,119.86676 149.44537,120.40436 149.98297,120.94196 150.52057,121.47955 150.98895,122.01715 151.33859,122.55475 151.86514,123.09235 152.40216,123.62991 152.93973,124.16751 153.47729,124.70511 154.01492,125.24271 154.48334,125.7803 154.83295,126.3179 155.35947,126.85547 155.89651,127.39307 156.4372,127.93066 156.75406,128.46826 157.24304,129.00586 157.70898,129.54346 158.06155,130.08105 158.37051,130.61862 158.56906,131.15622 158.79837,131.69382 159.06519,132.23141 159.33697,132.76901 159.45734,133.30661 159.71707,133.84424 159.91318,134.38178 160.14548,134.91937 160.26382,135.45697 160.45117,135.99457 160.68311,136.53217 160.72916,137.06976 160.9523,137.60733 160.99795,138.14493 161.22116,138.68253 161.26987,139.22012 161.34152,139.75772 161.52957,140.29532 161.53757,140.83289 161.75882,141.37048 161.80747,141.90808 161.80991,142.44568 161.81,142.98328 161.87924,143.52087 162.06717,144.05847 162.07828,144.59607 162.0788,145.13364 162.07883,145.67123 162.07883,146.20883 162.07883,146.74643 162.07883,147.28403 162.07883,147.82163 162.07883,148.35919 162.07883,148.89679 162.07883,149.43439 162.00961,149.97198 161.82165,150.50958 161.81058,151.04718 161.81003,151.58478 161.74081,152.12234 161.55286,152.65994 161.54178,153.19754 161.47205,153.73514 161.28403,154.27274 161.2038,154.81033 161.01529,155.3479 160.935,155.8855 160.7496,156.4231 160.51779,156.96069 160.39944,157.49829 160.21213,158.03589 159.98022,158.57349 159.86185,159.11105 159.6022,159.64865 159.33383,160.18625 159.13736,160.72388 158.90811,161.26144 158.64133,161.79904 158.37265,162.33664 158.03155,162.87421 157.72317,163.4118 157.4555,163.94943 157.03818,164.48703 156.68805,165.0246 156.38232,165.5622 155.9631,166.09976 155.61597,166.63736 155.15872,167.17499 154.80963,167.71258 154.28311,168.25015 153.74609,168.78775 153.27771,169.32532 152.92807,169.86291 152.40158,170.40363 151.8645,170.72052 151.32693,171.20947 150.78937,171.74463 150.2518,172.28522 149.71417,172.60208 149.17658,173.09418 148.63898,173.4086 148.10138,173.82828 147.56378,174.17853 147.02622,174.48422 146.48862,174.90347 145.95102,175.25372 145.41342,175.5625 144.87582,175.83334 144.33826,176.10223 143.80066,176.37103 143.26306,176.63986 142.72546,176.90863 142.18787,177.17743 141.65027,177.37393 141.1127,177.60315 140.57507,177.87308 140.03751,177.99335 139.49994,178.18079 138.96228,178.41269 138.42471,178.53104 137.88711,178.7215 137.34952,178.80188 136.81192,178.99036 136.27432,179.07068 135.73675,179.25919 135.19916,179.27023 134.66156,179.34 134.12396,179.52799 133.5864,179.53906 133.0488,179.53958 132.51117,179.60883 131.97357,179.79681 131.436,179.80786 130.89841,179.80838 130.36081,179.80841 129.82321,179.80841 129.28561,179.80841 128.74802,179.80841 128.21042,179.80841 127.67285,179.80841 127.13525,179.80841 126.59766,179.80841 126.06006,179.81152 125.52246,179.59082 124.98489,179.54217 124.4473,179.53973 123.9097,179.54269 123.3721,179.32199 122.83453,179.27341 122.29691,179.27405 121.75931,179.05319 121.22174,179.00769 120.68414,178.78455 120.14655,178.73889 119.60892,178.51575 119.07135,178.47009 118.53375,178.24695 117.99616,178.129 117.45856,177.94168 116.92099,177.70978 116.38339,177.59143 115.84579,177.33182 115.3082,177.13574 114.7706,176.90652 114.23303,176.63971 113.69544,176.37103 113.15784,176.10223 112.62024,175.83344 112.08264,175.49234 111.54504,175.18399 111.00745,174.91629 110.46988,174.49899 109.93225,174.14883 109.39465,173.84314 108.85706,173.42392 108.31949,173.07675 107.78189,172.55032 107.24429,172.08246 106.7067,171.73288 106.16913,171.20636 105.63153,170.66931 105.09393,170.13174 104.55634,169.59103 104.01874,169.27417 103.48117,168.78519 102.94354,168.25003 102.40595,167.71258 101.86838,167.17499 101.33078,166.63736 100.79318,166.09976 100.25558,165.5622 99.717987,165.0246 99.180389,164.55621 98.642792,164.2066 98.105194,163.68002 97.567627,163.14298 97.030029,162.60544 96.492401,162.06784 95.954834,161.53027 95.417267,160.99268 94.879669,160.45505 94.342072,159.91745 93.804474,159.37985 93.266876,158.84229 92.729279,158.30469 92.191681,157.76712 91.654083,157.22949 91.116516,156.69189 90.578888,156.1543 90.04129,155.61673 89.503723,155.07913 88.966125,154.54153 88.428528,154.07315 87.89093,153.72351 87.353348,153.19696 86.81575,152.65991 86.278168,152.12234 85.74057,151.58478 85.202988,151.04718 84.665375,150.50958 84.127808,149.97198 83.590195,149.43439 83.052582,148.89679 82.515015,148.35919 81.977417,147.82163 81.439819,147.28403 80.902237,146.74643 80.364624,146.20883 79.827026,145.67123 79.289444,145.13364 78.751846,144.59607 78.214264,144.05847 77.676666,143.52087 77.139053,142.98328 76.601486,142.44568 76.063889,141.90808 75.526276,141.37048 74.988708,140.83289 74.451126,140.29532 73.913513,139.75772 73.375916,139.22012 72.838303,138.68253 72.300735,138.14493 71.763153,137.60733 71.225525,137.06976 70.687943,136.53217 70.150345,135.99457 69.612762,135.45697 69.075165,134.91937 68.537582,134.38178 67.999985,133.84424 67.462402,133.30661 66.921707,132.76901 66.604828,132.23141 66.115845,131.69382 65.580688,131.15622 65.043213,130.61862 64.50563,130.08105 63.968033,129.54346 63.43045,129.00586 62.892853,128.46826 62.355255,127.93066 61.817673,127.39307 61.28006,126.85547 60.742462,126.3179 60.20488,125.7803 59.667282,125.24271 59.1297,124.70511 58.592087,124.16751 58.05452,123.62991 57.516922,123.09235 56.979309,122.55475 56.441711,122.01715 55.904129,121.47955 55.366531,120.94196 54.828949,120.40125 54.291351,120.15048 53.753738,120.13632 53.216171,120.13562 52.678558,120.13559 52.140961,120.13559 51.603394,120.13559 51.065781,120.13559 50.528198,120.13559 49.990601,120.13559 49.453018,120.13559 48.915421,120.13559 48.377838,120.13559 47.84024,120.13559 47.302658,120.13559 46.76503,120.13559 46.227448,120.13559 45.68985,120.13559 45.152267,120.13559 44.61467,120.13559 44.077087,120.13559 43.53949,120.13559 43.001907,120.13559 42.46431,120.13559 41.926697,120.13559 41.389114,120.13559 40.851517,120.13559 40.313919,120.13559 39.776337,120.13559 39.238739,120.13559 38.701126,120.13559 38.163559,120.13559 37.625946,120.13559 37.088364,120.20477 36.550766,120.3927 36.013184,120.40378 35.475586,120.40436 34.937988,120.40436 34.400406,120.40436 33.862808,120.40436 33.325226,120.40436 32.787613,120.40436 32.250015,120.40436 31.712433,120.40436 31.174835,120.40436 30.637268,120.40125 30.099655,120.62195 29.562057,120.67059 29.024475,120.66995 28.486862,120.89078 27.949295,121.00854 27.411697,121.26511 26.870987,121.75107 26.554138,122.28607 26.131226,122.82352 26.001663,123.36114 25.879883,123.89874 26.056641,124.43634 26.136337,124.97388 26.324844,125.51148 26.405136,126.04907 26.593628,126.5867 26.601624,127.1243 26.822891,127.6619 26.871521,128.19943 26.870865,128.73703 27.091705,129.27463 27.137222,129.81223 27.360413,130.34985 27.406021,130.88745 27.629181,131.42505 27.747116,131.96258 27.937515,132.50018 28.017914,133.03778 28.203308,133.57541 28.43512,134.11301 28.553482,134.6506 28.743927,135.18814 28.824295,135.72574 29.00972,136.26334 29.241531,136.80096 29.359863,137.33856 29.619522,137.87616 29.815552,138.41376 30.047882,138.95129 30.16626,139.48889 30.353622,140.02652 30.582397,140.56412 30.85228,141.10172 30.972549,141.63931 31.232285,142.17685 31.428345,142.71448 31.657578,143.25207 31.92746,143.78967 32.047729,144.32727 32.30748,144.86487 32.503525,145.40243 32.732758,145.94003 32.999542,146.47763 33.268234,147.01523 33.537033,147.55283 33.805832,148.09042 34.077713,148.62799 34.19809,149.16559 34.454758,149.70319 34.871506,150.24078 35.149353,150.77838 35.418579,151.31598 35.687393,151.85358 35.956192,152.39117 36.297302,152.92874 36.605637,153.46634 36.87645,154.00394 37.142258,154.54153 37.559464,155.07913 37.909592,155.61673 38.218384,156.1543 38.486115,156.69189 38.903442,157.22949 39.253601,157.76712 39.55928,158.30469 39.978531,158.84229 40.328781,159.37985 40.63446,159.91745 41.126022,160.45505 41.440399,160.99268 41.932388,161.53027 42.24678,162.06784 42.666458,162.60544 43.013657,163.14304 43.540054,163.68063 44.007919,164.21823 44.357513,164.75583 44.887146,165.2934 45.203461,165.83099 45.692444,166.36859 46.22757,166.90619 46.768143,167.44379 47.085037,167.98138 47.574005,168.51895 48.109161,169.05655 48.646622,169.59415 49.184219,170.13174 49.721817,170.66934 50.259399,171.20694 50.796997,171.74454 51.334579,172.2821 51.872177,172.8197 52.40976,173.3573 52.947357,173.8949 53.48494,174.36331 54.022552,174.71289 54.56015,175.23944 55.097748,175.77649 55.63533,176.24484 56.172928,176.59451 56.710541,177.12411 57.248123,177.44046 57.785721,177.92941 58.323303,178.39535 58.860901,178.74487 59.398483,179.20218 59.936081,179.5513 60.473663,180.00858 61.011261,180.35767 61.548859,180.81497 62.086441,181.16715 62.624054,181.47293 63.161652,181.89218 63.699234,182.24243 64.236832,182.54813 64.774445,182.96738 65.312012,183.3176 65.849625,183.62643 66.387222,183.89414 66.924805,184.31146 67.462402,184.58933 67.999985,184.93082 68.537582,185.23923 69.075165,185.51004 69.612762,185.77893 70.150345,186.04462 70.687943,186.46182 71.225525,186.73969 71.763153,187.00891 72.300735,187.27774 72.838303,187.54654 73.375916,187.81534 73.913513,188.08411 74.451126,188.3529 74.988708,188.62174 75.526276,188.89053 76.063889,189.16242 76.601486,189.28281 77.139053,189.54254 77.676666,189.81088 78.214264,190.00738 78.751846,190.23663 79.289444,190.50342 79.827026,190.77521 80.364624,190.89557 80.902237,191.08304 81.439819,191.31183 81.977417,191.5817 82.515015,191.702 83.052582,191.88943 83.590195,192.12131 84.127808,192.23965 84.665375,192.427 85.202988,192.65891 85.74057,192.77722 86.278168,192.9646 86.81575,193.1965 87.353348,193.31485 87.89093,193.50531 88.428528,193.58569 88.966125,193.77109 89.503723,194.0029 90.04129,194.12125 90.578888,194.31168 91.116516,194.39206 91.654083,194.58057 92.191681,194.66086 92.729279,194.8494 93.266876,194.92966 93.804474,195.11816 94.342072,195.12619 94.879669,195.34741 95.417267,195.39606 95.954834,195.46771 96.492401,195.65576 97.030029,195.66687 97.567627,195.66742 98.105194,195.73663 98.642792,195.92459 99.180389,195.93567 99.717987,195.93619 100.25558,195.93622 100.79318,195.93622 101.33078,196.00543 101.86838,196.19339 102.40595,196.20447 102.94354,196.20499 103.48117,196.20502 104.01874,196.20502 104.55634,196.20502 105.09393,196.20502 105.63153,196.20502 106.16913,196.20502 106.7067,196.20502 107.24429,196.20502 107.78189,196.20502 108.31949,196.20502 108.85706,196.20502 109.39465,196.20502 109.93225,196.20502 110.46988,196.20502 111.00745,196.20502 111.54504,196.20502 112.08264,196.20502 112.62024,196.20502 113.15784,196.20502 113.69544,196.20502 114.23303,196.20502 114.7706,196.20502 115.3082,196.20502 115.84579,196.20502 116.38339,196.20502 116.92099,196.20502 117.45856,196.20502 117.99616,196.20502 118.53375,196.20502 119.07135,196.20502 119.60892,196.20502 120.14655,196.20502 120.68414,196.13583 121.22174,195.94785 121.75931,195.93677 122.29691,195.93625 122.83453,195.93622 123.3721,195.93622 123.9097,195.867 124.4473,195.67905 124.98489,195.668 125.52246,195.67056 126.06006,195.4498 126.59766,195.40118 127.13525,195.40186 127.67285,195.181 128.21042,195.13238 128.74802,195.06073 129.28561,194.87265 129.82321,194.79242 130.36081,194.60391 130.89841,194.52362 131.436,194.3382 131.97357,194.10638 132.51117,194.06036 133.0488,193.83716 133.5864,193.71924 134.12396,193.52881 134.66156,193.44842 135.19916,193.263 135.73675,193.03122 136.27432,192.91287 136.81192,192.72549 137.34952,192.49359 137.88711,192.37527 138.42471,192.1879 138.96228,191.95599 139.49994,191.83765 140.03751,191.578 140.57507,191.38196 141.1127,191.14966 141.65027,191.03128 142.18787,190.77164 142.72546,190.57559 143.26306,190.34637 143.80066,190.07956 144.33826,189.80777 144.87582,189.68741 145.41342,189.42764 145.95102,189.1593 146.48862,188.89053 147.02622,188.62174 147.56378,188.42523 148.10138,188.19598 148.63898,187.92917 149.17658,187.66049 149.71417,187.39169 150.2518,187.12293 150.78937,186.78183 151.32693,186.47345 151.86456,186.20267 152.40216,185.93378 152.93973,185.66498 153.47729,185.39926 154.01492,184.98206 154.55252,184.70419 155.09012,184.36267 155.62769,184.05737 156.16531,183.63818 156.70288,183.36023 157.24048,183.01868 157.77808,182.71341 158.31567,182.29419 158.85327,181.94394 159.39084,181.63825 159.92844,181.21899 160.46606,180.86877 161.00363,180.56305 161.54123,180.07153 162.07883,179.75711 162.61642,179.26514 163.15402,178.95071 163.69159,178.46185 164.22919,177.99591 164.76678,177.64642 165.30438,177.18909 165.84198,176.84003 166.37955,176.31351 166.91717,175.77335 167.45474,175.45651 167.99234,174.9675 168.52997,174.43234 169.06753,173.8949 169.60513,173.3573 170.14273,172.88888 170.6803,172.53928 171.21793,172.01276 171.75549,171.47571 172.29309,170.93814 172.83066,170.40051 173.37137,169.86291 173.68826,169.32532 174.17725,168.78775 174.71237,168.25015 175.24988,167.71258 175.78748,167.17499 176.25586,166.63736 176.60544,166.09976 177.13202,165.5622 177.67215,165.0246 177.98901,164.48703 178.478,163.94943 178.94397,163.4118 179.29343,162.87421 179.75076,162.33664 180.09985,161.79904 180.55716,161.26144 180.90625,160.72388 181.36356,160.18625 181.71576,159.64865 182.02151,159.11105 182.44076,158.57349 182.79102,158.03589 183.09671,157.49829 183.51593,156.96069 183.86621,156.4231 184.17499,155.8855 184.44275,155.3479 184.86002,154.81033 185.13791,154.27274 185.47943,153.73514 185.78781,153.19754 186.05551,152.65994 186.47281,152.12234 186.7507,151.58478 187.0199,151.04718 187.28873,150.50958 187.55756,149.97198 187.82632,149.43439 188.09512,148.89679 188.36392,148.35919 188.63272,147.82163 188.90152,147.28403 189.17032,146.74643 189.4422,146.20883 189.56259,145.67123 189.8223,145.13364 190.09067,144.59607 190.35947,144.05847 190.55594,143.52087 190.78519,142.98328 191.05508,142.44568 191.17539,141.90808 191.36282,141.37048 191.59161,140.83289 191.86148,140.29532 191.98175,139.75772 192.16919,139.22012 192.40109,138.68253 192.51944,138.14493 192.70679,137.60733 192.93869,137.06976 193.05704,136.53217 193.24442,135.99457 193.47632,135.45697 193.59464,134.91937 193.78507,134.38178 193.86545,133.84424 194.05087,133.30661 194.28268,132.76901 194.40103,132.23141 194.58835,131.69382 194.81717,131.15622 195.08704,130.61862 195.20731,130.08105 195.39478,129.54346 195.62354,129.00586 195.9595,128.46515 196.48538,128.21747 197.02243,127.98257 197.55997,127.93329 198.09757,127.93076 198.63516,127.86148 199.17276,127.67349 199.71036,127.66241 200.24793,127.6619 200.78552,127.6619 201.32312,127.6619 201.86072,127.6619 202.39831,127.6619 202.93591,127.6619 203.47351,127.6619 204.01111,127.6619 204.54868,127.6619 205.08627,127.6619 205.6239,127.6619 206.16147,127.73108 206.69904,127.91901 207.23666,127.93008 207.77426,127.99985 208.31186,128.18472 208.84946,128.41342 209.31784,128.74936 209.60135,129.27527 209.65311,129.81229 209.72492,130.34985 209.91299,130.88745 209.85486,131.42505 209.66742,131.96258 209.6564,132.50018 209.65897,133.03778 209.4382,133.57541 209.38962,134.11301 209.31796,134.6506 209.12988,135.18814 209.04962,135.72574 208.8642,136.26334 208.63242,136.80096 208.58637,137.33856 208.36316,137.87616 208.24524,138.41376 208.05789,138.95129 207.82602,139.48889 207.70767,140.02652 207.52029,140.56412 207.28842,141.10172 207.17004,141.63931 206.98273,142.17685 206.75082,142.71448 206.63248,143.25207 206.4451,143.78967 206.21323,144.32727 206.09485,144.86487 205.83521,145.40243 205.63916,145.94003 205.40683,146.47763 205.28848,147.01523 205.02881,147.55283 204.83279,148.09042 204.60355,148.62799 204.33676,149.16559 204.06497,149.70319 203.94461,150.24078 203.68488,150.77838 203.4888,151.31598 203.25958,151.85358 202.99277,152.39117 202.72409,152.92874 202.45529,153.46634 202.18649,154.00394 201.91772,154.54153 201.64584,155.07913 201.52542,155.61673 201.26569,156.1543 201.00046,156.69189 200.58322,157.22949 200.30539,157.76712 200.03613,158.30469 199.76733,158.84229 199.4985,159.37985 199.22974,159.91745 198.88864,160.45505 198.58029,160.99268 198.30951,161.53027 198.0437,162.06784 197.6265,162.60544 197.34863,163.14304 197.00711,163.68063 196.70181,164.21823 196.28259,164.75583 196.00467,165.2934 195.66312,165.83099 195.35785,166.36859 194.93863,166.90619 194.58835,167.44379 194.28268,167.98138 193.79114,168.51895 193.47675,169.05655 193.05704,169.59415 192.7099,170.13174 192.25266,170.66934 191.90359,171.20694 191.44629,171.74454 191.0972,172.2821 190.63989,172.8197 190.2908,173.3573 189.76431,173.8949 189.29645,174.43249 188.94684,174.97006 188.42032,175.50769 187.95248,176.04526 187.60288,176.58285 187.07632,177.12042 186.53931,177.65805 186.07095,178.19565 185.72128,178.73325 185.19479,179.27081 184.65771,179.80841 184.12015,180.34601 183.58255,180.88361 183.04495,181.4212 182.50738,181.9588 181.96979,182.4964 181.43219,183.03397 180.89456,183.57156 180.357,184.10916 179.8194,184.64679 179.2818,185.11514 178.74423,185.46478 178.20664,185.9913 177.66904,186.52835 177.13144,187.06592 176.59384,187.6066 176.05624,187.92349 175.51868,188.41248 174.98105,188.87842 174.44345,189.22794 173.90588,189.75754 173.36829,190.07388 172.83066,190.56595 172.29309,190.88037 171.75549,191.36923 171.21793,191.83517 170.6803,192.18777 170.14273,192.49359 169.60513,192.98517 169.06753,193.29956 168.52997,193.71924 167.99234,194.06949 167.45474,194.37518 166.91717,194.79443 166.37955,195.14468 165.84198,195.45035 165.30438,195.86963 164.76678,196.21988 164.22919,196.52866 163.69159,196.79639 163.15402,197.21368 162.61642,197.49155 162.07883,197.7608 161.54123,198.1019 161.00363,198.41028 160.46606,198.67798 159.92844,199.09528 159.39084,199.37314 158.85327,199.64237 158.31567,199.91119 157.77808,200.17996 157.24048,200.44879 156.70288,200.71759 156.16531,200.98636 155.62769,201.25513 155.09012,201.52396 154.55252,201.79275 154.01492,202.06155 153.47729,202.33035 152.93973,202.60226 152.40216,202.72263 151.86456,202.98236 151.32693,203.17844 150.78937,203.40765 150.2518,203.67444 149.71417,203.94626 149.17658,204.06659 148.63898,204.32636 148.10138,204.52243 147.56378,204.75162 147.02622,205.02151 146.48862,205.14182 145.95102,205.32925 145.41342,205.56113 144.87582,205.67947 144.33826,205.86685 143.80066,206.09872 143.26306,206.2171 142.72546,206.40442 142.18787,206.63635 141.65027,206.75467 141.1127,206.94202 140.57507,207.17392 140.03751,207.2923 139.49994,207.48273 138.96228,207.56311 138.42471,207.75162 137.88711,207.83191 137.34952,208.0173 136.81192,208.24911 136.27432,208.29517 135.73675,208.51837 135.19916,208.564 134.66156,208.78717 134.12396,208.83276 133.5864,209.05597 133.0488,209.10465 132.51117,209.1763 131.97357,209.36441 131.436,209.37241 130.89841,209.59366 130.36081,209.64224 129.82321,209.64163 129.28561,209.86246 128.74802,209.91107 128.21042,209.98273 127.67285,210.17081 127.13525,210.18188 126.59766,210.25162 126.06006,210.43964 125.52246,210.45065 124.98489,210.4512 124.4473,210.52045 123.9097,210.7084 123.3721,210.71945 122.83453,210.72 122.29691,210.78922 121.75931,210.97723 121.22174,210.98825 120.68414,210.9888 120.14655,210.9888 119.60892,211.05801 119.07135,211.246 118.53375,211.25705 117.99616,211.2576 117.45856,211.25763 116.92099,211.25763 116.38339,211.25763 115.84579,211.25763 115.3082,211.25763 114.7706,211.25455 114.23303,211.47525 113.69544,211.52387 113.15784,211.52631 112.62024,211.52643 112.08264,211.52643 111.54504,211.52643 111.00745,211.52643 110.46988,211.52643 109.93225,211.52643 109.39465,211.52643 108.85706,211.52951 108.31949,211.30881 107.78189,211.26022 107.24429,211.25775 106.7067,211.25763 106.16913,211.25763 105.63153,211.25763 105.09393,211.25763 104.55634,211.25763 104.01874,211.25763 103.48117,211.26074 102.94354,211.04001 102.40595,210.99139 101.86838,210.98895 101.33078,210.9888 100.79318,210.9888 100.25558,210.99191 99.717987,210.77121 99.180389,210.72263 98.642792,210.72015 98.105194,210.72314 97.567627,210.50241 97.030029,210.45383 96.492401,210.45138 95.954834,210.38202 95.417267,210.19406 94.879669,210.18301 94.342072,210.11325 93.804474,209.92529 93.266876,209.91419 92.729279,209.91678 92.191681,209.69601 91.654083,209.64743 91.116516,209.57577 90.578888,209.3877 90.04129,209.3074 89.503723,209.11893 88.966125,209.1109 88.428528,208.88968 87.89093,208.84415 87.353348,208.62094 86.81575,208.57227 86.278168,208.50058 85.74057,208.3125 85.202988,208.23224 84.665375,208.04681 84.127808,207.815 83.590195,207.69669 83.052582,207.50623 82.515015,207.42584 81.977417,207.24042 81.439819,207.00864 80.902237,206.96258 80.364624,206.73938 79.827026,206.62146 79.289444,206.43414 78.751846,206.20224 78.214264,206.08389 77.676666,205.89655 77.139053,205.66775 76.601486,205.39789 76.063889,205.27762 75.526276,205.09018 74.988708,204.86136 74.451126,204.59149 73.913513,204.47122 73.375916,204.28378 72.838303,204.05496 72.300735,203.7851 71.763153,203.66483 71.225525,203.40506 70.687943,203.13672 70.150345,202.86795 69.612762,202.59918 69.075165,202.40265 68.537582,202.17343 67.999985,201.90662 67.462402,201.63791 66.924805,201.36914 66.387222,201.09726 65.849625,200.97995 65.312012,200.57181 64.774445,200.29437 64.236832,200.02518 63.699234,199.75635 63.161652,199.48755 62.624054,199.14645 62.086441,198.83813 61.548859,198.56729 61.011261,198.2984 60.473663,198.02957 59.936081,197.76392 59.398483,197.34671 58.860901,197.06885 58.323303,196.72733 57.785721,196.42206 57.248123,196.00281 56.710541,195.72488 56.172928,195.38333 55.63533,195.07803 55.097748,194.65881 54.56015,194.30859 54.022552,194.0029 53.48494,193.51138 52.947357,193.19693 52.40976,192.77725 51.872177,192.427 51.334579,192.12131 50.796997,191.62976 50.259399,191.31537 49.721817,190.82651 49.184219,190.36057 48.646622,190.01108 48.109039,189.48145 47.571442,189.1651 47.033859,188.67612 46.496246,188.21017 45.958649,187.86069 45.421066,187.33414 44.883499,186.79401 44.345886,186.47717 43.808258,185.98816 43.270691,185.45303 42.733078,184.91556 42.195496,184.37796 41.657898,183.84036 41.120316,183.29968 40.582718,182.98282 40.045135,182.49381 39.507538,181.95868 38.966843,181.4212 38.649948,180.88361 38.16098,180.34601 37.625824,179.80841 37.088364,179.27081 36.550766,178.73325 36.013184,178.19565 35.5448,177.65805 35.19516,177.12042 34.668625,176.58285 34.200775,176.04526 33.851181,175.50769 33.324661,174.97006 32.784485,174.43249 32.467667,173.8949 31.975555,173.3573 31.661133,172.8197 31.169174,172.2821 30.854752,171.74454 30.362762,171.20694 30.048355,170.66934 29.556381,170.13174 29.241943,169.59415 28.822281,169.05655 28.472031,168.51895 28.166321,167.98138 27.674789,167.44379 27.360413,166.90619 26.940704,166.36859 26.590439,165.83099 26.281647,165.2934 26.013947,164.75583 25.596619,164.21823 25.318741,163.68063 24.977234,163.14304 24.671936,162.60544 24.252731,162.06784 23.974777,161.53027 23.705551,160.99268 23.436707,160.45505 23.095627,159.91745 22.787277,159.37985 22.516479,158.84229 22.247559,158.30469 21.97876,157.76712 21.709976,157.22949 21.441177,156.69189 21.172379,156.1543 20.90358,155.61673 20.634766,155.07913 20.365997,154.54153 20.097198,154.00394 19.828384,153.46634 19.559601,152.92874 19.290817,152.39117 19.094299,151.85358 18.865082,151.31598 18.598267,150.77838 18.326462,150.24078 18.2061,149.70319 17.946365,149.16559 17.750305,148.62799 17.521072,148.09042 17.25119,147.55283 17.13092,147.01523 16.871155,146.47763 16.675125,145.94003 16.442795,145.40243 16.324417,144.86487 16.137054,144.32727 15.908279,143.78967 15.638412,143.25207 15.518127,142.71448 15.327591,142.17685 15.247223,141.63931 15.061783,141.10172 14.829971,140.56412 14.711655,140.02652 14.524307,139.48889 14.292404,138.95129 14.246368,138.41376 14.023163,137.87616 13.905243,137.33856 13.714798,136.80096 13.63443,136.26334 13.445923,135.72574 13.365616,135.18814 13.177109,134.6506 13.096832,134.11301 12.90831,133.57541 12.828018,133.03778 12.639526,132.50018 12.631531,131.96258 12.410263,131.42505 12.361649,130.88745 12.290009,130.34985 12.101898,129.81223 12.093948,129.27463 11.872681,128.73703 11.824066,128.19943 11.752411,127.6619 11.564331,127.1243 11.553253,126.5867 11.483505,126.04907 11.295517,125.51148 11.284485,124.97388 11.286987,124.43634 11.066269,123.89874 11.017654,123.36114 11.018311,122.82352 10.79747,122.28592 10.748871,121.74832 10.746414,121.21072 10.746292,120.67319 10.749405,120.13559 10.528671,119.59796 10.480057,119.06036 10.477615,118.52277 10.477493,117.98517 10.480576,117.44757 10.259857,116.90997 10.211288,116.37241 10.208817,115.83481 10.20871,115.29721 10.208679,114.75961 10.208679,114.22201 10.208679,113.68448 10.208679,113.14685 10.208679,112.60925 10.208679,112.07166 10.208679,111.53406 10.208679,110.99646 10.208679,110.45886 10.205597,109.92133 10.423248,109.3837 10.758636,108.84299 11.284485,108.52301 11.821503,108.32089 12.35907,108.30914 12.896683,108.31162 13.43428,108.09088 13.971863,108.04227 14.50946,108.03982 15.047043,108.03973 15.58461,108.03973 16.122223,108.03973 16.659821,108.03973 17.197403,108.03973 17.735001,108.03973 18.272583,108.03973 18.810181,107.97049 19.347763,107.78256 19.885391,107.77148 20.422974,107.77097 20.960571,107.7709 21.498184,107.7709 22.035751,107.7709 22.573334,107.7709 23.110947,107.7709 23.648514,107.7709 24.186127,107.7709 24.723724,107.7709 25.261322,107.7709 25.798904,107.7709 26.336502,107.7709 26.874084,107.7709 27.411697,107.7709 27.949295,107.7709 28.486862,107.7709 29.024475,107.7709 29.562057,107.7709 30.099655,107.7709 30.637268,107.7709 31.174835,107.7709 31.712433,107.7709 32.250015,107.7709 32.787613,107.7709 33.325226,107.7709 33.862808,107.7709 34.400406,107.7709 34.937988,107.7709 35.475586,107.7709 36.013184,107.7709 36.550766,107.7709 37.088364,107.7709 37.625946,107.7709 38.163559,107.7709 38.701126,107.7709 39.238739,107.7709 39.776337,107.7709 40.313919,107.7709 40.851517,107.7709 41.389114,107.7709 41.926697,107.7709 42.46431,107.7709 43.001907,107.7709 43.53949,107.7709 44.077087,107.7709 44.61467,107.7709 45.152267,107.7709 45.68985,107.7709 46.227448,107.7709 46.76503,107.7709 47.302658,107.7709 47.84024,107.7709 48.377838,107.7709 48.915421,107.7709 49.453018,107.7709 49.990601,107.7709 50.528198,107.7709 51.065781,107.7709 51.603394,107.7709 52.140961,107.7709 52.678558,107.7709 53.216171,107.7709 53.753738,107.7709 54.291351,107.7709 54.828949,107.7709 55.366531,107.7709 55.904129,107.7709 56.441711,107.7709 56.979309,107.7709 57.516922,107.7709 58.05452,107.7709 58.592087,107.7709 59.1297,107.7709 59.667282,107.7709 60.20488,107.7709 60.742462,107.7709 61.28006,107.7709 61.817673,107.7709 62.355255,107.7709 62.892853,107.7709 63.43045,107.76779 63.968033,108.05466 64.50563,108.57803 65.043213,109.11493 65.580811,109.6525 66.118393,110.19009 66.656006,110.72769 67.193604,111.26529 67.731186,111.80289 68.268784,112.34049 68.806381,112.87805 69.343964,113.41565 69.881561,113.95325 70.419144,114.49084 70.956757,115.02844 71.494354,115.56604 72.031937,116.10361 72.569534,116.6412 73.107117,117.1788 73.644714,117.7164 74.182297,118.254 74.719894,118.7916 75.257492,119.32916 75.795105,119.86676 76.332672,120.40436 76.870285,120.94196 77.407867,121.47955 77.945465,122.01715 78.483047,122.55475 79.020645,123.09235 79.558258,123.62991 80.095856,124.16751 80.633438,124.70511 81.171036,125.24271 81.708618,125.7803 82.246185,126.3179 82.783798,126.85547 83.321396,127.39307 83.858978,127.93066 84.396576,128.46826 84.934158,129.00586 85.471756,129.54346 86.009354,130.08105 86.546967,130.61862 87.084549,131.15622 87.622147,131.69382 88.159729,132.23141 88.697357,132.76901 89.234924,133.30661 89.772491,133.84424 90.31012,134.38178 90.847717,134.92248 91.316101,135.23935 91.66571,135.72833 92.19223,136.26352 92.729309,136.80096 93.266876,137.33856 93.804474,137.87616 94.342072,138.41376 94.879669,138.95129 95.417267,139.48889 95.954834,140.02652 96.492401,140.56412 97.030029,141.10172 97.567627,141.63931 98.105194,142.17685 98.642792,142.71448 99.180389,143.25207 99.717987,143.78967 100.25558,144.32727 100.79318,144.86487 101.33078,145.40243 101.86838,145.94003 102.40595,146.47763 102.94354,147.01831 103.48117,147.33521 104.01874,147.82419 104.55634,148.35931 105.09393,148.89679 105.63153,149.43439 106.16913,149.97198 106.7067,150.50958 107.24429,151.04718 107.78189,151.58478 108.31949,152.12234 108.85706,152.65994 109.39465,153.19754 109.93225,153.73514 110.46988,154.27274 111.00745,154.81033 111.54504,155.35101 112.08264,155.66791 112.62024,156.15689 113.15784,156.69205 113.69544,157.22952 114.23303,157.76712 114.7706,158.3078 115.3082,158.62463 115.84579,159.11365 116.38339,159.6488 116.92099,160.11706 117.45856,160.46668 117.99616,160.99634 118.53375,161.31265 119.07135,161.80472 119.60892,162.11917 120.14655,162.53882 120.68414,162.88907 121.22174,163.19788 121.75931,163.46869 122.29691,163.73761 122.83453,164.00641 123.3721,164.20288 123.9097,164.43521 124.4473,164.55362 124.98489,164.74408 125.52246,164.75525 126.06006,164.75269 126.59766,164.97342 127.13525,165.02203 127.67285,165.02447 128.21042,165.0246 128.74802,165.0246 129.28561,165.0246 129.82321,165.0246 130.36081,164.95538 130.89841,164.76743 131.436,164.75638 131.97357,164.75583 132.51117,164.68661 133.0488,164.49863 133.5864,164.41836 134.12396,164.23294 134.66156,164.00116 135.19916,163.88281 135.73675,163.6232 136.27432,163.42712 136.81192,163.19791 137.34952,162.85883 137.88711,162.55057 138.42471,162.28284 138.96228,161.86554 139.49994,161.51849 140.03751,160.98898 140.57507,160.67264 141.1127,160.18368 141.65027,159.64856 142.18787,159.11105 142.65625,158.57349 143.00589,158.03589 143.53552,157.49829 143.85187,156.96069 144.27161,156.4231 144.62189,155.8855 144.93069,155.3479 145.20151,154.81033 145.4704,154.27274 145.7392,153.73514 145.9357,153.19754 146.16495,152.65994 146.43481,152.12234 146.55508,151.58478 146.74564,151.04718 146.82605,150.50958 147.01453,149.97198 147.02567,149.43439 147.09537,148.89679 147.28336,148.35919 147.29443,147.82163 147.29498,147.28403 147.29498,146.74643 147.29498,146.20883 147.29498,145.67123 147.29498,145.13364 147.2981,144.59607 147.07739,144.05847 147.02878,143.52087 147.02942,142.98328 146.80859,142.44568 146.75998,141.90808 146.68832,141.37048 146.50336,140.83289 146.27466,140.29532 146.0079,139.75772 145.73917,139.22012 145.3981,138.68253 145.09286,138.14493 144.60446,137.60733 144.13852,137.06976 143.78903,136.53217 143.26248,135.99457 142.72232,135.45697 142.40549,134.91937 141.9165,134.38178 141.38132,133.84424 140.84387,133.30661 140.30322,132.76901 139.98633,132.23141 139.49731,131.69382 138.96216,131.15622 138.42471,130.61862 137.88711,130.08105 137.34952,129.54346 136.81192,129.00586 136.27432,128.46826 135.73675,127.93066 135.19916,127.39307 134.65845,126.85547 134.34158,126.3179 133.8526,125.7803 133.31747,125.24271 132.77997,124.70511 132.24237,124.16751 131.7048,123.62991 131.16721,123.09235 130.62961,122.55475 130.09201,122.01715 129.55444,121.47955 129.01685,120.94196 128.47925,120.40436 127.94165,119.86676 127.40405,119.32916 126.86646,118.7916 126.32886,118.254 125.79126,117.7164 125.25369,117.1788 124.71606,116.6412 124.17847,116.10361 123.64087,115.56604 123.1033,115.02844 122.5657,114.49084 122.02811,113.95325 121.49051,113.41565 120.95294,112.87805 120.41534,112.34049 119.87775,111.80289 119.34015,111.26529 118.80258,110.72769 118.26498,110.19009 117.72736,109.6525 117.18976,109.11487 116.65219,108.57727 116.11459,108.03973 115.577,107.50214 115.0394,106.96454 114.5018,106.42694 113.9642,105.88931 113.4266,105.35171 112.88904,104.81418 112.35144,104.27658 111.81384,103.73898 111.34543,103.20139 110.99582,102.66379 110.4693,102.12616 109.93225,101.58856 109.39465,101.05102 108.85706,100.51343 108.31949,99.97583 107.78189,99.438232 107.24429,98.900604 106.7067,98.363007 106.16913,97.825409 105.63153,97.287872 105.09393,96.750275 104.55634,96.212677 104.01874,95.675049 103.48117,95.137451 102.94354,94.599854 102.40595,94.062317 101.86838,93.524719 101.33078,92.987122 100.79318,92.449493 100.3248,91.911896 99.975128,91.374298 99.448608,90.836761 98.91156,90.299164 98.374023,89.761566 97.836426,89.223938 97.298798,88.68634 96.76123,88.148743 96.223633,87.611145 95.686035,87.073608 95.148438,86.536011 94.607758,85.998413 94.290894,85.460785 93.80188,84.923187 93.266754,84.38559 92.729248,83.847992 92.191681,83.310455 91.654083,82.772858 91.113403,82.235229 90.796509,81.697632 90.307526,81.160034 89.7724,80.622437 89.234924,80.084839 88.694214,79.547302 88.37735,79.009674 87.888382,78.472076 87.350128,77.934479 87.102585,77.396881 86.867661,76.859283 86.749161,76.321686 86.558685,75.784119 86.478317,75.246521 86.289825,74.708923 86.278732,74.171326 86.278168,73.633728 86.278168,73.096191 86.278168,72.558533 86.347351,72.020996 86.532227,71.483398 86.76091,70.945801 87.027664,70.408203 87.296371,69.870544 87.634369,69.333008 88.160324,68.79541 88.697357,68.327026 89.234924,67.974304 89.772491,67.737671 90.31012,67.503296 90.847717,67.457153 91.385284,67.233948 91.922882,67.185181 92.46048,67.182739 92.998077,67.182617 93.466492,67.254883 93.816101,67.271851 94.073242,67.378296 94.342072,67.434631 94.879669,67.44751 "
           id="polygon17"
           style="fill:url(#linearGradient1524);fill-opacity:1" />
      </g>
    </g>
  </g>
  <g
     inkscape:groupmode="layer"
     id="layer1"
     inkscape:label="Layer 1" />
</svg>
