<?xml version="1.0" encoding="UTF-8"?><svg xmlns="http://www.w3.org/2000/svg" viewBox="0 0 400 400" width="256" height="256"><defs><style>.cls-1{fill:#0078a0;}.cls-1,.cls-2{stroke-width:0px;}.cls-2{fill:#fff;}</style></defs><g id="Ebene_2"><path class="cls-2" d="M200,.5C89.819145.5.5,89.819281.5,200.000088s89.319145,199.499912,199.5,199.499912,199.5-89.319105,199.5-199.499912S310.180855.5,200,.5Z"/></g><g id="Ebene_1"><path class="cls-1" d="M199.99894,59.658444c-77.38507,0-140.340116,62.956431-140.340116,140.341467s62.955046,140.342881,140.340116,140.342881,140.342943-62.957845,140.342943-140.342881S277.38401,59.658444,199.99894,59.658444ZM200,334.865109c-74.483872,0-134.865081-60.381182-134.865081-134.865021S125.516128,65.135067,200,65.135067s134.865081,60.381182,134.865081,134.865021-60.381208,134.865021-134.865081,134.865021Z"/><path class="cls-1" d="M200.137446,330.036848l-1.260684-.005653c-.794287-.005653-1.433109-.655781-1.427456-1.450068.005653-.79146.647302-1.427455,1.438762-1.427455h.011307l1.099565.005653c.794287,0,1.509429.644475,1.509429,1.438762s-.576636,1.438762-1.370923,1.438762ZM210.090064,329.646771c-.746234,0-1.376576-.576635-1.433109-1.331349-.05936-.794287.537063-1.483988,1.328523-1.543348l1.223937-.098933c.726448-.098933,1.492469.508796,1.560308,1.30591.070666.79146-.514449,1.489641-1.30591,1.560308l-1.26351.104586c-.036746.002827-.073493.002827-.110239.002827ZM188.93545,329.567625c-.039573,0-.079146,0-.118719-.002827l-1.26351-.113066c-.791461-.076319-1.370923-.780154-1.294604-1.571614s.791461-1.385056,1.571615-1.294603l1.218284.107412c.794287.065013,1.385056.760367,1.320043,1.551828-.062186.754714-.692528,1.322869-1.433109,1.322869ZM221.221393,328.289982c-.689701,0-1.300257-.497489-1.416149-1.20415-.130026-.78298.398557-1.526388,1.184364-1.653587l1.218284-.209172c.785807-.135679,1.529215.390077,1.664894,1.173057.135679.785807-.390077,1.529214-1.173058,1.664893l-1.240897.209172c-.079146.014133-.158292.019787-.237438.019787ZM177.818254,328.13169c-.081973,0-.163945-.005653-.248745-.019787l-1.246551-.223305c-.780154-.146985-1.294604-.898873-1.150445-1.681853.146986-.785807.913006-1.30591,1.681854-1.150444l1.206978.217652c.782981.135679,1.308737.879086,1.173058,1.664893-.121546.698181-.729275,1.192844-1.416149,1.192844ZM232.194431,325.972134c-.641648,0-1.226764-.42965-1.393536-1.076951-.200692-.771674.262878-1.557481,1.031726-1.755346l1.195671-.313757c.780154-.209172,1.557482.254398,1.763827,1.017592.206345.768847-.251571,1.557481-1.017592,1.763826l-1.218284.319411c-.121546.031093-.243092.045226-.361811.045226ZM166.865003,325.729042c-.121546,0-.248745-.014133-.373117-.048053l-1.212631-.327891c-.766021-.211998-1.215458-1.006285-1.003459-1.772306.214825-.763194,1.003459-1.201324,1.772307-1.003459l1.190018.322237c.766021.206345,1.223937.994979,1.017592,1.763826-.172425.641648-.754714,1.065645-1.39071,1.065645ZM242.918723,322.69888c-.593596,0-1.150445-.367464-1.35679-.961059-.265705-.749061.127199-1.571614.879087-1.834492l1.158925-.418343c.754714-.274184,1.574441.113066,1.845799.862126s-.115892,1.574441-.862127,1.845799l-1.187191.423997c-.158292.056533-.319411.081973-.477703.081973ZM156.163324,322.373816c-.161119,0-.325064-.02544-.486183-.084799l-1.195671-.43813c-.743408-.282664-1.119352-1.110871-.839514-1.857105.282665-.746234,1.108045-1.110871,1.857106-.839513l1.150445.426823c.749061.268531,1.136311,1.093911.86778,1.840145-.209172.587942-.763194.952579-1.353963.952579ZM253.303818,318.501313c-.545543,0-1.065645-.310931-1.308737-.839513-.330718-.720794-.014133-1.577267.709488-1.907985l1.119352-.517276c.715141-.336371,1.574441-.02544,1.913639.698181.333544.720794.022613,1.577267-.698181,1.913638l-1.136311.522929c-.192212.087626-.398557.130026-.599249.130026ZM145.792362,318.088623c-.203518,0-.409864-.0424-.604902-.132852l-1.150445-.542716c-.715141-.344851-1.017592-1.20415-.672742-1.922118s1.206978-1.011939,1.922119-.672741l1.110872.525756c.720795.333544,1.034552,1.190017.701008,1.910811-.243092.525756-.763194.83386-1.30591.83386ZM263.28753,313.410527c-.500316,0-.986499-.260051-1.252204-.729274-.392904-.692528-.149812-1.568787.542716-1.961691l1.068472-.613382c.681222-.392904,1.565962-.161119,1.967345.531409.39573.689701.158292,1.568787-.531409,1.967344l-1.085432.619035c-.223305.127199-.466396.186559-.709488.186559ZM135.831263,312.907385c-.245918,0-.494663-.062186-.720795-.192212l-1.091085-.635995c-.684048-.40421-.913006-1.28895-.508796-1.972998.40421-.689701,1.294604-.910179,1.972998-.508796l1.068472.624688c.686875.398557.924313,1.277643.525756,1.967344-.265705.460743-.751888.717968-1.246551.717968ZM272.787885,307.468921c-.457917,0-.907353-.217652-1.187191-.624688-.449437-.655781-.282665-1.551828.373117-2.001264l1.009112-.701008c.650128-.45509,1.546175-.302451,2.004092.353331.457917.650128.299624,1.549001-.353331,2.004091l-1.031726.717968c-.248745.169599-.531409.251571-.814074.251571ZM126.367655,306.883806c-.285491,0-.570982-.081973-.819727-.257225l-1.040205-.732101c-.644475-.46357-.794287-1.362442-.330718-2.009744.46357-.644475,1.362443-.79146,2.009745-.330717l1.000632.709488c.655782.452263.816901,1.348309.361811,2.001264-.279838.40421-.726448.619035-1.181538.619035ZM281.737044,300.721722c-.415517,0-.828207-.178079-1.110872-.522929-.50597-.616208-.418344-1.523561.195039-2.026704l.946926-.785807c.602075-.508796,1.512255-.432477,2.026705.178079.511623.607728.432477,1.515081-.178079,2.026704l-.963886.802767c-.268531.220478-.593596.327891-.915833.327891ZM117.466548,300.060287c-.325064,0-.652955-.107412-.921486-.330717l-.966713-.819727c-.604902-.517276-.675568-1.427455-.158292-2.02953.522929-.610555,1.430283-.669915,2.029531-.158292l.938446.79146c.610555.508796.692528,1.416149.186559,2.02953-.285491.342024-.695355.517276-1.108045.517276ZM290.067168,293.225462c-.375944,0-.749061-.144159-1.031726-.435303-.554022-.570982-.542716-1.481162.028266-2.035184l.873433-.862126c.559676-.565329,1.475509-.565329,2.035185,0,.562502.562502.562502,1.472682,0,2.035184l-.9017.890393c-.279838.271358-.641648.407037-1.003459.407037ZM109.187304,292.490534c-.367464,0-.737754-.138506-1.017592-.42117l-.890393-.89322c-.556849-.568155-.545543-1.481162.019787-2.03801.568156-.554022,1.481162-.542716,2.038011.019787l.86778.87626c.562502.562502.562502,1.472682,0,2.035184-.279838.282664-.650128.42117-1.017592.42117ZM297.727377,285.028194c-.333544,0-.664262-.113066-.93562-.344851-.604902-.517276-.675568-1.427455-.158292-2.02953l.799941-.944099c.514449-.610555,1.421803-.681221,2.029531-.175252.607729.511623.686875,1.418975.175252,2.02953l-.816901.961059c-.285491.333544-.689701.503143-1.093912.503143ZM101.600588,284.236733c-.407037,0-.814074-.172425-1.096738-.508796l-.811247-.969539c-.50597-.616208-.418344-1.523561.195039-2.026704.616209-.503143,1.526389-.415517,2.026705.195038l.782981.941272c.514449.604902.440957,1.512255-.166772,2.026704-.268531.231785-.599249.342024-.929966.342024ZM304.644178,276.200584c-.291144,0-.585116-.087626-.839514-.268531-.644475-.46357-.794287-1.362442-.330718-2.009744l.709488-1.000632c.457917-.658608,1.359616-.8169,2.001265-.36181.655782.452263.816901,1.348309.361811,2.001264l-.732101,1.040205c-.279838.390077-.723621.599249-1.170231.599249ZM94.757279,275.358244c-.452263,0-.898873-.211998-1.178711-.613382l-.717968-1.031725c-.449437-.655781-.282665-1.551828.373117-2.001264.652955-.443783,1.549002-.282664,2.001265.373117l.701008,1.009112c.457917.650128.299624,1.549001-.353331,2.004091-.251571.175252-.539889.260051-.82538.260051ZM310.772346,266.801992c-.251571,0-.503143-.062186-.732101-.197865-.684048-.40421-.913006-1.28895-.508796-1.972998l.624689-1.068471c.39573-.692528,1.286124-.918659,1.967345-.525756.686875.398557.924313,1.277643.525756,1.967344l-.635995,1.091085c-.268531.45509-.749061.706661-1.240897.706661ZM88.713912,265.920079c-.494663,0-.975193-.254398-1.243724-.715141l-.627515-1.091085c-.392904-.692528-.149812-1.568787.542716-1.961691.684048-.38725,1.565962-.152639,1.961692.542716l.610555,1.062818c.401384.686875.166772,1.565961-.520103,1.967344-.226132.132852-.474876.195038-.723621.195038ZM316.055346,256.900258c-.209172,0-.423997-.045226-.624689-.141332-.715141-.344851-1.017592-1.20415-.672742-1.922118l.525756-1.110871c.336371-.720794,1.195671-1.031725,1.910812-.701008.720795.333544,1.034552,1.190017.701008,1.910811l-.542716,1.150444c-.248745.514449-.763194.814074-1.29743.814074ZM83.515711,255.995732c-.542716,0-1.059992-.305278-1.30591-.831033l-.525756-1.136311c-.330718-.720794-.014133-1.577267.709488-1.907985.709488-.336371,1.574441-.014133,1.907986.709488l.520103,1.119351c.333544.720794.022613,1.577267-.698181,1.913638-.195039.090453-.40421.132852-.607729.132852ZM320.453606,246.574527c-.169599,0-.339197-.028266-.508796-.090453-.743408-.282664-1.119352-1.110871-.839514-1.857105l.426823-1.150444c.268531-.749061,1.091085-1.141964,1.840146-.86778.749061.268531,1.136311,1.093911.86778,1.840145l-.43813,1.19567c-.217652.576635-.766021.929966-1.34831.929966ZM79.207903,245.658694c-.585116,0-1.136311-.358984-1.351136-.938446l-.42965-1.19567c-.265705-.749061.127199-1.571614.879087-1.834492.749061-.271358,1.571615.127199,1.834493.879086l.418344,1.150444c.274185.746234-.107413,1.574441-.85082,1.851452-.166772.05936-.333544.087626-.500316.087626ZM323.924726,235.909599c-.127199,0-.254398-.01696-.384424-.05088-.766021-.211998-1.215458-1.006285-1.003459-1.772306l.325064-1.190017c.203518-.766021.980846-1.235243,1.763827-1.017592.766021.206345,1.223937.994979,1.017592,1.763826l-.330718,1.21263c-.178079.635995-.754714,1.054338-1.387883,1.054338ZM75.818755,234.971153c-.635995,0-1.218284-.423997-1.39071-1.065645l-.322238-1.218284c-.200692-.771674.262878-1.557481,1.031726-1.755346.777327-.197865,1.557482.262878,1.755347,1.031725l.316584,1.19567c.206345.768847-.251571,1.557481-1.017592,1.763826-.124372.03392-.251571.048053-.373117.048053ZM326.448921,224.984619c-.090453,0-.178079-.005653-.268531-.022613-.780154-.146985-1.294604-.898873-1.150445-1.681853l.217652-1.206977c.135679-.780154.87626-1.300256,1.664894-1.173057.782981.135679,1.308737.879086,1.173058,1.664893l-.223305,1.24655c-.130026.692528-.734928,1.173057-1.413323,1.173057ZM73.376534,224.026387c-.684048,0-1.28895-.489009-1.413323-1.184364l-.214825-1.249377c-.130026-.78298.398557-1.526388,1.184364-1.653587.766021-.135679,1.523562.39573,1.653588,1.184364l.209172,1.209804c.141332.78298-.37877,1.532041-1.161751,1.670547-.084799.01696-.172425.022613-.257225.022613ZM328.003576,213.881561c-.048053,0-.093279,0-.141332-.005653-.791461-.076319-1.370923-.780154-1.294604-1.571614l.113066-1.22959c.067839-.79146.763194-1.430282,1.560308-1.30591.791461.067839,1.376576.768847,1.30591,1.560308l-.113066,1.252203c-.070666.743407-.698181,1.300256-1.430283,1.300256ZM71.906678,212.912022c-.734928,0-1.36527-.562502-1.430283-1.311563l-.107413-1.25503c-.062186-.79146.525756-1.486815,1.320043-1.551828.782981-.070666,1.486815.525756,1.551828,1.320043l.101759,1.232417c.070666.79146-.514449,1.489641-1.30591,1.560308-.0424.005653-.084799.005653-.130026.005653ZM328.591518,202.685224h-.00848c-.797114-.005653-1.435936-.652955-1.430283-1.447242l.005653-1.780786c0-.794287.644475-1.438762,1.438762-1.438762s1.438762.644475,1.438762,1.438762l-.005653,1.797746c-.005653.794287-.647302,1.430282-1.438762,1.430282ZM71.403535,201.574352c-.794287,0-1.438762-.508796-1.438762-1.303083l.002827-1.257857c.005653-.79146.650128-1.427455,1.438762-1.427455h.011307c.797114.005653,1.435936.655781,1.427456,1.450068l-.002827.963886c0,.794287-.644475,1.574441-1.438762,1.574441ZM328.176001,190.940517c-.740581,0-1.370923-.568155-1.433109-1.322869l-.104586-1.232417c-.070666-.79146.514449-1.489641,1.30591-1.560308.723621-.093279,1.492469.511623,1.560308,1.30591l.110239,1.25503c.062186.79146-.525756,1.486815-1.320043,1.551828-.039573.002827-.079146.002827-.118719.002827ZM71.864279,190.508041c-.039573,0-.079146,0-.118719-.002827-.794287-.065013-1.385056-.760367-1.320043-1.551828l.113066-1.26351c.076319-.79146.797114-1.390709,1.571615-1.294603.791461.076319,1.370923.780154,1.294604,1.571614l-.107413,1.218284c-.062186.754714-.692528,1.322869-1.433109,1.322869ZM326.782465,179.812019c-.686875,0-1.294604-.494663-1.416149-1.192844l-.211998-1.22111c-.141332-.78298.37877-1.532041,1.161751-1.670547.768848-.161119,1.532042.37877,1.670547,1.161751l.217652,1.23807c.135679.785807-.390077,1.529214-1.173058,1.664893-.084799.014133-.166772.019787-.248745.019787ZM73.288908,179.390849c-.081973,0-.163945-.005653-.248745-.019787-.782981-.135679-1.308737-.879086-1.173058-1.664893l.220478-1.235243c.138506-.785807.907353-1.320043,1.670547-1.161751.782981.141332,1.303084.890393,1.161751,1.673373l-.214825,1.215457c-.121546.698181-.729275,1.192844-1.416149,1.192844ZM324.433523,168.850293c-.641648,0-1.223937-.426823-1.393536-1.076951l-.316584-1.184364c-.211998-.766021.240265-1.560308,1.006286-1.769479.774501-.228958,1.557482.243091,1.76948,1.006285l.327891,1.223937c.200692.768847-.260051,1.554654-1.031726,1.755346-.121546.031093-.243092.045226-.361811.045226ZM75.677423,168.434777c-.121546,0-.248745-.014133-.373117-.048053-.766021-.206345-1.223937-.994979-1.017592-1.763826l.327891-1.21263c.209172-.763194.997806-1.232417,1.76948-1.006285.766021.209172,1.218284,1.003459,1.006286,1.769479l-.322238,1.19567c-.172425.641648-.754714,1.065645-1.39071,1.065645ZM321.123521,158.137312c-.593596,0-1.150445-.367464-1.35679-.961059l-.418344-1.150444c-.274185-.746234.107413-1.574441.85082-1.851452.749061-.271358,1.574441.104586,1.851453.85082l.42965,1.19567c.265705.749061-.127199,1.571614-.879087,1.834492-.158292.056533-.319411.081973-.477703.081973ZM79.021345,157.730275c-.161119,0-.325064-.02544-.486183-.084799-.749061-.268531-1.136311-1.093911-.86778-1.840145l.432477-1.190017c.274185-.746234,1.093912-1.122178,1.851453-.85082.743408.277011,1.125005,1.105218.85082,1.851452l-.426823,1.161751c-.209172.587942-.763194.952579-1.353963.952579ZM316.892033,147.763528c-.545543,0-1.065645-.310931-1.308737-.839513l-.517276-1.110871c-.339197-.720794-.028266-1.577267.689701-1.916465.715141-.339197,1.577268-.031093,1.916466.689701l.528583,1.139138c.330718.720794.014133,1.577267-.709488,1.907985-.192212.090453-.398557.130026-.599249.130026ZM83.298059,147.350838c-.203518,0-.409864-.0424-.604902-.132852-.720795-.333544-1.034552-1.190017-.701008-1.910811l.537063-1.141964c.339197-.720794,1.198498-1.031725,1.916466-.684048.717968.339197,1.026072,1.198497.684048,1.916465l-.525756,1.119351c-.243092.525756-.763194.83386-1.30591.83386ZM311.772978,137.799608c-.49749,0-.980846-.257225-1.249377-.720794l-.616209-1.071298c-.401384-.686875-.166772-1.565961.520103-1.967344.675568-.398557,1.563135-.172425,1.967345.520103l.627515,1.082605c.39573.689701.158292,1.568787-.531409,1.967344-.226132.130026-.47205.189385-.717968.189385ZM88.46234,137.392571c-.243092,0-.48901-.05936-.712315-.189385-.692528-.392904-.932793-1.27199-.537063-1.961691l.635995-1.099565c.40421-.686875,1.29743-.910179,1.972998-.508796.684048.40421.913006,1.28895.508796,1.972998l-.619035,1.059992c-.265705.466396-.751888.726448-1.249377.726448ZM305.79745,128.316217c-.45509,0-.904527-.214825-1.184364-.619035l-.703835-1.006285c-.457917-.647302-.305278-1.546174.344851-2.006917.641648-.45509,1.543348-.308104,2.006918.344851l.720795,1.028898c.452263.655781.288318,1.551828-.364637,2.004091-.251571.172425-.537063.254398-.819727.254398ZM94.480268,127.914833c-.285491,0-.570982-.081973-.819727-.257225-.655782-.452263-.816901-1.348309-.361811-2.001264l.732101-1.040205c.460743-.647302,1.36527-.79146,2.009745-.330717.644475.46357.794287,1.362442.330718,2.009744l-.709488,1.000632c-.279838.40421-.726448.619035-1.181538.619035ZM299.019154,119.384021c-.41269,0-.822554-.175252-1.108045-.520103l-.785807-.941272c-.514449-.604902-.440957-1.512255.166772-2.026704.599249-.517276,1.515082-.443783,2.026705.166772l.808421.963886c.508796.610555.423997,1.517908-.189385,2.026704-.268531.223305-.593596.330717-.91866.330717ZM101.292484,119.008078c-.325064,0-.652955-.107412-.921486-.330717-.610555-.508796-.692528-1.416149-.186559-2.02953l.819727-.966712c.522929-.607728,1.430283-.669915,2.029531-.158292.604902.517276.675568,1.427455.158292,2.02953l-.791461.938446c-.285491.342024-.695355.517276-1.108045.517276ZM291.503104,111.082167c-.370291,0-.740581-.141332-1.023246-.426823l-.87626-.879086c-.562502-.562502-.562502-1.472682,0-2.035184.559676-.565329,1.475509-.565329,2.035185,0l.887567.890393c.559676.562502.554022,1.475508-.011307,2.035184-.279838.277011-.644475.415517-1.011939.415517ZM108.850933,110.723184c-.367464,0-.737754-.138506-1.017592-.42117-.562502-.562502-.562502-1.472682,0-2.035184l.89322-.890393c.565329-.554022,1.478336-.545542,2.038011.019787.556849.568155.545543,1.481162-.019787,2.03801l-.87626.86778c-.279838.282664-.650128.42117-1.017592.42117ZM283.280393,103.447402c-.330718,0-.661435-.110239-.932793-.342024l-.9441-.794287c-.610555-.508796-.692528-1.416149-.186559-2.02953.508796-.613382,1.418976-.695354,2.029531-.186559l.966713.8169c.604902.514449.678395,1.421802.163945,2.02953-.285491.333544-.689701.505969-1.096738.505969ZM117.099085,103.125164c-.407037,0-.814074-.172425-1.096738-.508796-.514449-.604902-.440957-1.512255.166772-2.026704l.969539-.811247c.616209-.503143,1.526389-.418343,2.026705.195038.50597.616208.418344,1.523561-.195039,2.026704l-.941273.78298c-.268531.231785-.599249.342024-.929966.342024ZM274.427339,96.556043c-.288318,0-.579462-.084799-.831034-.262878l-1.009112-.712314c-.655782-.452263-.816901-1.348309-.361811-2.001264.45509-.655781,1.35679-.814074,2.001265-.36181l1.031726.723621c.650128.460743.802767,1.359616.344851,2.006917-.282665.398557-.726448.607728-1.175884.607728ZM125.971924,96.273379c-.449437,0-.89322-.209172-1.175884-.607728-.457917-.647302-.305278-1.546174.344851-2.006917l1.037379-.723621c.652955-.443783,1.549002-.282664,2.001265.373117.449437.655781.282665,1.551828-.373117,2.001264l-1.003459.701008c-.251571.178079-.542716.262878-.831034.262878ZM265.011784,90.461799c-.251571,0-.503143-.062186-.732101-.197865l-1.059992-.619035c-.692528-.392904-.932793-1.27199-.537063-1.961691.39573-.692528,1.28047-.929966,1.961692-.537062l1.099565.635995c.684048.40421.913006,1.28895.508796,1.972998-.268531.45509-.749061.706661-1.240897.706661ZM135.398787,90.218707c-.494663,0-.975193-.254398-1.243724-.715141-.401384-.686875-.166772-1.565961.520103-1.967344l1.091085-.627515c.684048-.390077,1.568788-.155465,1.961692.542716.392904.692528.149812,1.568787-.542716,1.961691l-1.062819.610555c-.226132.132852-.474876.195038-.723621.195038ZM255.093085,85.209894c-.206345,0-.418344-.0424-.616209-.138506l-1.119352-.525756c-.720795-.333544-1.034552-1.190017-.701008-1.910811.336371-.720794,1.198498-1.031725,1.910812-.701008l1.141965.537062c.717968.339197,1.026072,1.198497.684048,1.916465-.245918.520103-.763194.822553-1.300257.822553ZM145.320312,85.012029c-.539889,0-1.057165-.305278-1.303084-.82538-.339197-.720794-.028266-1.577267.689701-1.916465l1.139138-.528582c.715141-.342024,1.574441-.014133,1.907986.709488.330718.720794.014133,1.577267-.709488,1.907985l-1.110872.517276c-.197865.093279-.407037.135679-.613382.135679ZM244.756043,80.842729c-.166772,0-.333544-.028266-.500316-.087626l-1.161751-.426823c-.749061-.268531-1.136311-1.093911-.86778-1.840145.265705-.749061,1.091085-1.144791,1.840146-.86778l1.190018.432477c.743408.277011,1.125005,1.105218.85082,1.851452-.214825.579462-.766021.938446-1.351136.938446ZM155.651701,80.69009c-.585116,0-1.136311-.358984-1.351136-.938446-.274185-.746234.107413-1.574441.85082-1.851452l1.195671-.42965c.751888-.271358,1.571615.127199,1.834493.879086.265705.749061-.127199,1.571614-.879087,1.834492l-1.150445.418343c-.166772.05936-.333544.087626-.500316.087626ZM234.076977,77.402703c-.124372,0-.254398-.014133-.381597-.05088l-1.184364-.316584c-.771674-.200692-1.232417-.986499-1.031726-1.755346s.980846-1.235243,1.755347-1.031725l1.223937.327891c.766021.209172,1.218284,1.003459,1.006286,1.769479-.175252.638822-.754714,1.057165-1.387883,1.057165ZM166.33642,77.289637c-.635995,0-1.218284-.423997-1.39071-1.065645-.206345-.768847.251571-1.557481,1.017592-1.763826l1.215458-.322237c.777327-.200692,1.554655.262878,1.755347,1.031725s-.260051,1.554654-1.031726,1.755346l-1.192844.316584c-.124372.03392-.251571.048053-.373117.048053ZM223.146339,74.918083c-.084799,0-.172425-.005653-.257225-.022613l-1.218284-.214825c-.782981-.135679-1.308737-.879086-1.173058-1.664893.135679-.780154.87626-1.30591,1.664894-1.173057l1.235244.220478c.782981.141332,1.303084.890393,1.161751,1.670547-.124372.698181-.732101,1.184364-1.413323,1.184364ZM177.275538,74.841763c-.684048,0-1.28895-.489009-1.413323-1.184364-.141332-.78298.37877-1.532041,1.161751-1.670547l1.249377-.214825c.757541-.138506,1.523562.39573,1.653588,1.184364.130026.78298-.398557,1.526388-1.184364,1.653587l-1.209804.209172c-.084799.01696-.172425.022613-.257225.022613ZM212.040449,73.397348c-.048053,0-.093279,0-.141332-.005653l-1.218284-.107412c-.794287-.065013-1.385056-.760367-1.320043-1.551828.065013-.794287.777327-1.379402,1.551828-1.320043l1.26351.113066c.791461.076319,1.370923.780154,1.294604,1.571614-.070666.743407-.698181,1.300256-1.430283,1.300256ZM188.387081,73.357775c-.734928,0-1.36527-.562502-1.430283-1.311563-.070666-.79146.514449-1.489641,1.30591-1.560308l1.255031-.107412c.785807-.048053,1.483989.525756,1.551828,1.320043.062186.79146-.525756,1.486815-1.320043,1.551828l-1.232417.101759c-.0424.005653-.084799.005653-.130026.005653ZM200.838454,72.843326h-.014133l-1.232417-.002827c-.794287,0-1.438762-.644475-1.438762-1.438762s.644475-1.438762,1.438762-1.438762l1.260684.002827c.794287.00848,1.433109.658608,1.424629,1.452895-.00848.79146-.650128,1.424629-1.438762,1.424629Z"/><path class="cls-1" d="M200,0C89.543002,0,0,89.543139,0,200.000088s89.543002,199.999912,200,199.999912,200-89.542963,200-199.999912S310.456998,0,200,0ZM199.99894,395.462353c-107.777161,0-195.459701-87.685327-195.459701-195.462441S92.221779,4.538884,199.99894,4.538884s195.462528,87.683914,195.462528,195.461028-87.685366,195.462441-195.462528,195.462441Z"/><path class="cls-1" d="M214.036467,134.415719c-5.649481,3.087797-10.935423,7.287736-17.25769,8.873868-1.160612.137425-2.375464.647042-3.356617,1.30084-5.14638,2.815003-9.031229,8.354293-15.086095,9.113976-5.603681.741444-8.388538,7.154852-12.978193,9.964434-15.642181,13.654223-26.142526,32.987594-29.1194,53.506897-1.891486,7.507444,7.768702,10.552251,10.588326,15.871385.690171,3.129326,1.641867,6.02426,3.506376,8.634115.833178,1.166194.718184,4.001227.066895,4.889071-1.563086-7.207198-4.298324-3.778213-9.352623-2.409355-1.78792.521287-3.141079,2.573481-5.407557,1.539131-.290607-.132672-1.020784.14517-1.216881.44734-3.265846,3.660813-3.869254,7.318984-4.906115,11.810226-.218049.563241-.526549,1.268047-.364635,1.769973.610483,1.892978-.098651,3.591915-.405682,5.390436-.649287,4.255087,3.698388,6.981592,3.768355,11.234837.346768,1.86005.679942,3.853387,1.288769,5.629075,1.541082,1.809204,3.131889,4.777417,5.148486,5.863549,1.775075-1.391852,1.871883-4.81642,2.550786-7.108054,1.204168,1.204169,4.117624,2.367292,5.264777,3.514445,1.147153,1.147153,2.310274,4.060608,3.514443,5.264777-2.291636.678901-5.716205.775707-7.108059,2.55078,1.086131,2.016597,4.054344,3.607405,5.863548,5.148488,1.775689.608828,3.769026.942004,5.629077,1.288773,4.253247.069969,6.97975,4.417645,11.234839,3.768361,1.798522-.30703,3.49746-1.016162,5.390439-.405678.501926.161914,1.206733-.146585,1.769974-.364633,4.491245-1.036858,8.149417-1.640263,11.810235-4.906105.302171-.196097.580013-.926273.447341-1.21688-1.034349-2.266478,1.017847-3.619635,1.539135-5.407554,1.368862-5.054296,4.797851-7.789531-2.409349-9.352621.887845-.651288,3.72288-.76628,4.889073.066898,2.609855,1.864511,5.50479,2.816208,8.634117,3.506381,5.319134,2.819627,8.363936,12.479812,15.871385,10.588333,20.519314-2.976858,39.852701-13.477185,53.50694-29.11935,2.809586-4.58965,9.222999-7.374503,9.964447-12.97818.759688-6.054864,6.298983-9.939707,9.113991-15.086082.6538-.981152,1.163417-2.196002,1.300843-3.356614,1.586137-6.322263,5.786082-11.6082,8.873884-17.257677,2.17216-11.947839,1.383049-24.457158,4.999486-36.383793,11.467062-47.446163-3.770801-62.641294-51.183258-51.18327-11.926643,3.616426-24.435967,2.827307-36.383813,4.999458Z"/><path class="cls-1" d="M119.112363,111.015035v86.834507l86.834546-86.834507h-86.834546ZM138.703665,151.995015h-10.930461v-34.627804h10.930461v34.627804ZM146.549549,151.995015v-34.627804h10.930638v34.627804h-10.930638Z"/><path class="cls-1" d="M126.743599,351.558916c-.310931.678395-.130026,1.175884.551196,1.486815l3.301522,1.523561c.678395.313757,1.175884.130026,1.486815-.548369l.978019-2.119983-5.339533-2.462007-.978019,2.119983Z"/><path class="cls-1" d="M199.99894,6.69844C93.411796,6.69844,6.698796,93.412815,6.698796,199.999912s86.713,193.302885,193.300144,193.302885,193.30297-86.715788,193.30297-193.302885S306.586084,6.69844,199.99894,6.69844ZM342.916957,85.450159l3.799011,5.282998-8.163352,5.87094,1.238071.491836c1.164578.489009,2.069104,1.184364,2.716406,2.083237l1.806226,2.515713c1.031726,1.433109,1.438762,2.806858,1.223937,4.124074-.214825,1.31439-1.037379,2.487447-2.470488,3.519172l-14.178453,10.192879-3.799011-5.282998,13.155208-9.460778c.607729-.43813.692528-.958232.257225-1.565961l-.630342-.87626c-.313758-.435303-.83386-.79994-1.557482-1.091085l-2.716406-1.085431-12.281774,8.830436-3.801838-5.282998,25.403062-18.265774ZM318.325142,73.699799c1.543348.01696,3.038644.763194,4.485886,2.235876l4.206048,4.299326c1.404843,1.430282,2.086064,2.908617,2.049318,4.432178s-.791461,3.007549-2.26697,4.451964l-1.34831,1.320043-4.426527-4.522631,1.088258-1.068471c.534236-.522929.539889-1.051512.01696-1.585747l-2.450702-2.50158c-.522929-.534236-1.051512-.539889-1.585748-.01696l-6.894188,6.752853c-.534236.522929-.539889,1.051512-.01696,1.588574l2.450702,2.50158c.522929.534236,1.051512.539889,1.585748.014133l1.218284-1.192844,4.429353,4.522631-1.475509,1.444415c-1.475509,1.444415-2.976458,2.170863-4.500019,2.176516-1.523562.002827-2.984938-.709488-4.38978-2.142596l-4.208875-4.296499c-1.444416-1.475508-2.159557-2.984936-2.142597-4.531111.01696-1.543348.763194-3.038642,2.238703-4.483058l7.408638-7.255995c1.475509-1.444415,2.982111-2.159556,4.528286-2.142596ZM301.602708,58.226749l-.862127,1.598467,1.77796.100346c1.255031.120132,2.326329.513036,3.213896,1.178711l2.476141,1.859932c1.410496,1.059992,2.210437,2.251422,2.396995,3.571465.186559,1.318629-.248745,2.686725-1.308737,4.097221l-10.489681,13.960795-5.203854-3.909249,9.734967-12.957337c.449437-.597835.373117-1.122178-.223305-1.571614l-.862127-.647302c-.407037-.305278-1.011939-.497489-1.81188-.575222l-2.945364-.190798-9.059398,12.058464-5.203854-3.909249,13.669657-18.196522,4.700711,3.531892ZM271.142777,47.296116c.975193-1.820359,2.19913-2.953843,3.680292-3.401866,1.478336-.44661,3.12627-.183732,4.946629.79146l5.302787,2.839364c1.766653.945512,2.863392,2.151076,3.284562,3.615278.418344,1.465615.144159,3.107895-.831034,4.928254l-3.346748,6.252537-10.68472-5.721128-1.591401,2.967976c-.353331.660021-.197865,1.165991.460743,1.519321l3.12627,1.673373c.658608.353331,1.167405.200692,1.517909-.45933l.573809-1.068471,5.579798,2.987763-.635995,1.187191c-.946926,1.768066-2.134117,2.861977-3.5644,3.285974-1.433109.42117-3.03299.158292-4.799644-.788634l-5.302787-2.839364c-1.82036-.973779-2.953844-2.200542-3.400454-3.678877-.449437-1.478335-.183732-3.127682.788634-4.949454l4.89575-9.141367ZM251.644578,24.242007l6.139474,2.159556-3.335442,9.484804,1.29743-.305278c1.232417-.262878,2.374382-.210585,3.417414.156879l2.922751,1.027485c1.664894.585115,2.787072,1.479748,3.363708,2.682485.576636,1.201324.570982,2.635846-.014133,4.300739l-4.039276,11.476175c-.585116,1.664893-1.478336,2.785658-2.67966,3.362293-1.204151.576635-2.63726.570982-4.302154-.014133l-2.922751-1.027485c-1.043032-.367464-1.964519-1.040205-2.761633-2.019637l-1.085432-1.380816-.836687,1.561721-5.545878-1.950384,10.382268-29.514405ZM223.785161,18.39368l6.402352,1.170231-2.902965,15.897047,1.368096.250158,5.096442-2.172276c.658608-.274184,1.034552-.662848,1.125005-1.163164l.582289-3.179975,5.783316,1.057165-.774501,4.238553c-.274185,1.502361-1.492469,2.678245-3.654852,3.530479l-3.239336,1.23383,3.454161,4.829321c1.110872,1.571614,1.551828,2.990589,1.32287,4.256926l-.799941,4.371405-6.181873-1.129244.587942-3.223788c.107413-.587942-.076319-1.24655-.551196-1.971584l-3.397628-5.137426-1.721427-.315171-1.7186,9.405658-6.402352-1.170231,5.622198-30.777915ZM201.392476,25.53237l5.873769.248745.223305,2.165209,1.492469-1.283296c.715141-.628928,1.82036-.911593,3.315655-.847993l3.587013.151225-.237438,5.606649-3.363708-.142746c-.746234-.032506-1.353963.152639-1.82036.551196l-2.939711,2.572246-.590769,13.991888-6.504111-.275598.963886-22.737525ZM176.322958,28.508826c.989326-1.184364,2.512888-1.869825,4.570686-2.053557l6.704803-.600662c2.057798-.185145,3.677466.219065,4.864657,1.20839,1.184364.990739,1.868413,2.5143,2.052145,4.570684l.92714,10.328558c.183732,2.056384-.220478,3.677464-1.209804,4.863241-.992153,1.185777-2.512888,1.869825-4.570686,2.053557l-6.707629.600662c-2.054971.185145-3.677466-.217652-4.86183-1.20839s-1.871239-2.5143-2.054971-4.570684l-.924313-10.328558c-.183732-2.056384.217652-3.676051,1.209804-4.863241ZM139.570915,27.050278l1.74404,6.012272c.223305.768847.568156,1.346896,1.040205,1.734146l6.747203,11.918545-1.040205-13.519839c-.053706-.667088-.172425-1.31439-.356157-1.944731l-1.755347-6.051845,5.947262-1.72708,1.854279,6.382562c.101759.344851.327891.856473.681222,1.533454l6.730243,11.935505-.684048-13.679544c-.062186-.513036-.206345-1.157511-.432477-1.934838l-1.766653-6.090005,6.334512-1.838732,2.004092,6.897012c.090453.316584.183732,1.223937.277011,2.723472l.452263,22.16513-6.59739,1.915051-6.470191-10.696021.262878,12.498007-6.594564,1.915051-11.487487-18.961129c-.726448-1.315803-1.133485-2.132703-1.226764-2.449287l-2.001265-6.897012,6.337339-1.840145ZM113.048502,38.731384l1.433109,2.333395-13.420912,8.252388,5.760703,9.367499,12.502252-7.687059,1.387883,2.255662-12.505079,7.688472,6.374085,10.363891,13.72619-8.441773,1.433109,2.331981-16.403023,10.08688-16.386063-26.652427,16.097745-9.898908ZM73.978609,67.235264l4.505673,5.147319c.652955.746234,1.221111,1.266337,1.701641,1.563134l17.850266,9.424032-7.046827-18.898943c-.251571-.617622-.669915-1.264923-1.26351-1.940491l-4.500019-5.141666,2.329156-2.039424,4.731804,5.40313c.650128.743407,1.108045,1.537694,1.368096,2.381448l7.753488,21.671881-2.464835,2.156729-20.484699-10.523596c-.684048-.277011-1.399189-.84234-2.14825-1.698813l-4.728978-5.404544,2.396995-2.100197ZM47.38341,202.177664c-2.316436.681045-3.373071,3.360527-2.144717,5.439347,1.290717,2.184289-1.119705,4.678803-3.346925,3.463522-2.119631-1.156451-4.761307-.008833-5.362676,2.329685-.631932,2.45706-4.100226,2.51642-4.81572.082326-.681222-2.316612-3.360528-3.37307-5.439349-2.144716-2.18429,1.290716-4.678628-1.119704-3.463524-3.346923,1.156451-2.11963.008833-4.761305-2.329686-5.362674-2.457238-.631932-2.516598-4.100224-.082503-4.815718h.000177c2.316436-.681221,3.372895-3.360527,2.144717-5.439347-1.290717-2.184289,1.119705-4.678803,3.346925-3.463699,2.119631,1.156451,4.761307.00901,5.362853-2.329508.631755-2.457237,4.100049-2.516597,4.81572-.082503.680868,2.316612,3.360528,3.37307,5.439349,2.144716,2.18429-1.290716,4.678628,1.119881,3.463347,3.3471-1.156451,2.11963-.008833,4.761305,2.329686,5.362674,2.457238.631932,2.516598,4.100224.082326,4.815718ZM64.107964,77.156785l2.131291,1.721426-9.901739,12.256329,8.556256,6.911145,9.223344-11.419642,2.060624,1.664893-9.22617,11.419642,9.463609,7.643246,10.12787-12.536167,2.128464,1.721426-12.100869,14.981214-24.337417-19.662137,11.874737-14.701376ZM199.99894,57.498888c78.575088,0,142.5025,63.92597,142.5025,142.501024s-63.927412,142.502437-142.5025,142.502437S57.499267,278.574965,57.499267,199.999912,121.423852,57.498888,199.99894,57.498888ZM60.014981,317.769212l7.804368-6.342989-1.266337-.418343c-1.190018-.42117-2.134117-1.059992-2.832299-1.919291l-1.953212-2.402648c-1.113698-1.370922-1.602708-2.719232-1.464202-4.044928.135679-1.325696.890393-2.546806,2.25849-3.660504l13.550938-11.012606,4.104289,5.051213-12.572919,10.221145c-.582289.469223-.635995.997805-.163945,1.577267l.678395.836687c.342024.418343.881913.749061,1.622494.994979l2.775766.927139,11.739058-9.542751,4.104289,5.051213-24.278057,19.732803-4.107116-5.048386ZM89.344254,333.08397c-1.543348.073493-3.081043-.582289-4.610259-1.970171l-4.451966-4.042101c-1.486815-1.345483-2.255663-2.781418-2.306543-4.304979-.053706-1.523561.613382-3.049949,2.001265-4.579163l1.266337-1.393536,4.689405,4.251273-1.026072,1.130658c-.503143.554022-.477703,1.082605.076319,1.585747l2.592034,2.351768c.554022.503143,1.082605.477703,1.585748-.076319l6.484324-7.145756c.503143-.554022.477703-1.082605-.076319-1.585747l-2.592034-2.351768c-.554022-.503143-1.082605-.477703-1.585748.076319l-1.144791,1.26351-4.686578-4.254099,1.387883-1.529214c1.385056-1.529214,2.840779-2.340461,4.361514-2.436567,1.520735-.093279,3.024511.531409,4.508499,1.879718l4.454793,4.042101c1.529215,1.387882,2.329156,2.852084,2.405475,4.395432.073493,1.543348-.582289,3.078215-1.970172,4.60743l-6.967681,7.679992c-1.387883,1.529214-2.852085,2.329155-4.395434,2.405474ZM106.920335,347.528122l.768848-1.647934-1.780787.005653c-1.260684-.048053-2.354596-.375944-3.276082-.989325l-2.583554-1.71012c-1.469856-.975192-2.337636-2.117156-2.60334-3.423066-.262878-1.30591.090453-2.696618,1.068472-4.166473l9.650167-14.554391,5.424332,3.598318-8.957639,13.505706c-.41269.621862-.308104,1.141964.316584,1.554654l.896047.593595c.426823.282664,1.040205.43813,1.845799.469223l2.951018.01696,8.332951-12.56726,5.427159,3.595491-12.578572,18.966782-4.901403-3.247814ZM142.335374,347.231324l-4.344554,9.415552c-.864953,1.876892-2.021051,3.081042-3.471121,3.615278s-3.112137.367464-4.986202-.497489l-5.461079-2.51854c-1.82036-.839513-2.984938-1.978651-3.493734-3.417413-.50597-1.435935-.327891-3.092349.537063-4.966414l2.973631-6.439095,11.00413,5.076653,1.410496-3.058429c.313758-.678395.130026-1.173057-.548369-1.486815l-3.219549-1.486815c-.681222-.313757-1.175884-.130026-1.489642.548369l-.508796,1.102391-5.74657-2.654219.562502-1.22111c.84234-1.820359,1.964519-2.984936,3.366535-3.490905,1.404843-.505969,3.016031-.339197,4.83639.500316l5.461079,2.521367c1.874066.864953,3.081043,2.021051,3.615279,3.471119s.367464,3.112135-.49749,4.9862ZM158.769491,378.488355l-6.258193-1.792092,2.770112-9.667123-1.274817.384424c-1.218284.333544-2.357422.350504-3.423068.045226l-2.976458-.853647c-1.698814-.486183-2.869045-1.311563-3.516347-2.478967-.647302-1.164577-.726448-2.597686-.240265-4.293672l3.349575-11.693827c.486183-1.698813,1.311563-2.869044,2.478968-3.516345,1.164578-.647302,2.597687-.726448,4.293674-.240265l2.979284.853647c1.062819.305278,2.023878.921486,2.877525,1.851452l1.164578,1.31439.740581-1.608361,5.653291,1.619667-8.618442,30.075493ZM186.937012,382.683095l-6.461711-.79146,1.961692-16.038379-1.379403-.169599-4.960763,2.46766c-.641648.313757-.992153.723621-1.054339,1.226764l-.392904,3.208241-5.837023-.712314.522929-4.279539c.186559-1.515081,1.334177-2.758805,3.442854-3.736824l3.157363-1.424629-3.731172-4.61591c-1.201324-1.503775-1.72708-2.894484-1.568788-4.172127l.539889-4.409565,6.23558.763194-.39573,3.250641c-.073493.593595.149812,1.240897.667088,1.936251l3.694426,4.929667,1.73556.211998,1.161751-9.489044,6.461711.788634-3.799011,31.056339ZM203.037584,374.347321l-.350504-2.151076-1.413323,1.370922c-.678395.669915-1.763827,1.014765-3.261949,1.040205l-3.58984.05936-.090453-5.610889,3.366535-.053706c.749061-.014133,1.342657-.231785,1.783613-.658608l2.784246-2.739018-.226132-14.003195,6.506938-.104586.370291,22.754485-5.879422.096106ZM233.712339,369.816211c-.921486,1.240897-2.399822,2.015397-4.443487,2.317848l-6.659576.994979c-2.040838.302451-3.683119-.002827-4.926843-.921486-1.240897-.921486-2.012572-2.399821-2.317849-4.443485l-1.529215-10.255065c-.305278-2.040837.002827-3.683117.921486-4.926841.91866-1.240897,2.399822-2.012571,4.44066-2.317848l6.659576-.992152c2.043665-.305278,3.685946,0,4.926843.921486,1.240897.918659,2.015398,2.399821,2.320676,4.440658l1.529215,10.255065c.302451,2.043664-.002827,3.683117-.921486,4.926841ZM270.546355,369.069977l-2.100198-5.89638c-.268531-.751887-.647302-1.308736-1.139138-1.66772l-7.448211-11.495962,1.842973,13.43504c.096106.661435.251571,1.303083.47205,1.919291l2.114331,5.938779-5.837023,2.074757-2.230223-6.261017c-.118719-.336371-.375944-.83386-.771674-1.486815l-7.425597-11.515748,1.495295,13.615945c.093279.505969.277011,1.141964.548369,1.905158l2.125637,5.969872-6.215793,2.216089-2.408302-6.766986c-.113066-.310931-.257225-1.209804-.43813-2.702272l-1.772307-22.095877,6.470191-2.306542,7.09488,10.291811-1.006286-12.459847,6.470191-2.303715,12.595532,18.243161c.802767,1.27199,1.257857,2.060624,1.370923,2.371554l2.408302,6.766986-6.215793,2.210436ZM296.311228,355.849762l-1.568788-2.244355,12.909289-9.031128-6.300593-9.011341-12.030203,8.412093-1.517909-2.170863,12.030203-8.412093-6.973334-9.966747-13.206087,9.234646-1.568788-2.244355,15.781161-11.035219,17.932238,25.637662-15.48719,10.8317ZM333.64556,325.081741l-4.80247-4.873134c-.695355-.706661-1.291777-1.192844-1.789267-1.461375l-18.373195-8.35556,8.146392,18.449506c.285491.602075.743408,1.223937,1.37375,1.865585l4.796817,4.864655-2.20761,2.173689-5.039909-5.116226c-.692528-.701008-1.195671-1.467028-1.506602-2.295235l-9.016999-21.174391,2.334809-2.300888,21.069815,9.299659c.698181.237438,1.444416.760367,2.244356,1.571614l5.039909,5.116226-2.269796,2.235876ZM342.933917,314.583585l-2.227397-1.594227,9.158331-12.818831-8.946333-6.393869-8.533642,11.942571-2.15673-1.537694,8.533642-11.942571-9.896085-7.072264-9.370329,13.109975-2.227397-1.591401,11.196342-15.668088,25.456768,18.189455-10.987171,15.376944ZM380.900711,202.177664c-2.316613.681045-3.373248,3.360527-2.144894,5.439347,1.290717,2.184289-1.119705,4.678803-3.346925,3.463522-2.119631-1.156451-4.761307-.008833-5.362676,2.329685-.631932,2.45706-4.100226,2.51642-4.81572.082326-.681045-2.316612-3.360528-3.37307-5.439349-2.144716-2.18429,1.290716-4.678628-1.119704-3.463524-3.346923,1.156451-2.11963.00901-4.761305-2.329686-5.362674-2.457061-.631932-2.516598-4.100224-.082503-4.815718h.000177c2.316613-.681221,3.373071-3.360527,2.144717-5.439347-1.290717-2.184289,1.119705-4.678803,3.346925-3.463699,2.119631,1.156451,4.761484.00901,5.362853-2.329508.631755-2.457237,4.100049-2.516597,4.81572-.082503.680868,2.316612,3.360528,3.37307,5.439349,2.144716,2.18429-1.290716,4.678628,1.119881,3.463524,3.3471-1.156628,2.11963-.00901,4.761305,2.329509,5.362674,2.457238.631932,2.516598,4.100224.082503,4.815718Z"/><path class="cls-1" d="M282.067762,53.044097c.353331-.660021.197865-1.165991-.460743-1.519321l-3.205416-1.715773c-.658608-.353331-1.164578-.199278-1.517909.45933l-1.102392,2.057797,5.184068,2.775765,1.102392-2.057797Z"/><path class="cls-1" d="M155.535808,350.665697l-1.037379-.296798c-.717968-.206345-1.181538.05088-1.387883.771674l-2.657047,9.277046c-.206345.717968.05088,1.181537.768848,1.387882l1.037379.296798c.517276.146985,1.150445.110239,1.896679-.110239l2.806859-.831033,2.052145-7.162716-1.927772-2.233049c-.517276-.585115-1.034552-.949752-1.551828-1.099565Z"/><path class="cls-1" d="M253.227499,52.20741l1.017592.35757c.703835.247331,1.181538.019787,1.430283-.686875l3.202589-9.103207c.248745-.705248.019787-1.182951-.686875-1.431695l-1.014766-.35757c-.508796-.178079-1.144791-.179492-1.902332-.002827l-2.852085.662848-2.473315,7.029864,1.79492,2.343288c.48053.613382.975193,1.009112,1.483989,1.188604Z"/><path class="cls-1" d="M183.717463,43.914036l4.203222-.377357c.746234-.066426,1.085432-.47205,1.017592-1.218284l-.88474-9.880535c-.067839-.744821-.47205-1.084018-1.218284-1.017592l-4.203222.377357c-.743408.066426-1.082605.473463-1.017592,1.218284l.887567,9.880535c.065013.744821.47205,1.084018,1.215458,1.017592Z"/><path class="cls-1" d="M225.424615,354.871743l-4.174955.624688c-.740581.110239-1.054339.534236-.9441,1.274817l1.464202,9.811282c.110239.740581.534236,1.054338,1.274817.944099l4.172129-.621862c.740581-.113066,1.057165-.537062.946926-1.274817l-1.464202-9.814108c-.110239-.737754-.537063-1.054338-1.274817-.944099Z"/></g></svg>